<svg width="32" height="32" viewBox="0 0 32 32" fill="none" xmlns="http://www.w3.org/2000/svg">
<path d="M7.80917 16.9402C7.57879 17.401 6.92121 17.401 6.69081 16.9402L6.1398 15.8382C6.05179 15.6622 6.05179 15.455 6.1398 15.279L6.69081 14.177C6.92121 13.7162 7.57879 13.7162 7.80917 14.177L8.36021 15.279C8.44818 15.455 8.44818 15.6622 8.36021 15.8382L7.80917 16.9402ZM7.80917 23.1902C7.57879 23.651 6.92121 23.651 6.69081 23.1902L6.1398 22.0882C6.05179 21.9122 6.05179 21.705 6.1398 21.529L6.69081 20.427C6.92121 19.9661 7.57879 19.9661 7.80917 20.427L8.36021 21.529C8.44818 21.705 8.44818 21.9122 8.36021 22.0882L7.80917 23.1902Z" fill="#1D4AFF"/>
<path d="M1 20.8179C1 20.2609 1.67341 19.982 2.06726 20.3758L4.93273 23.2413C5.32658 23.6352 5.04764 24.3086 4.49066 24.3086H1.62519C1.27991 24.3086 1 24.0287 1 23.6834V20.8179ZM1 17.7996C1 17.9654 1.06587 18.1245 1.18311 18.2417L7.06689 24.1254C7.18413 24.2427 7.34315 24.3086 7.50895 24.3086H10.7407C11.2976 24.3086 11.5766 23.6352 11.1827 23.2413L2.06726 14.1258C1.67341 13.732 1 14.0109 1 14.5679V17.7996ZM1 11.5496C1 11.7154 1.06587 11.8744 1.18311 11.9917L13.3169 24.1254C13.4341 24.2427 13.5931 24.3086 13.7589 24.3086H16.9907C17.5476 24.3086 17.8266 23.6352 17.4327 23.2413L2.06726 7.87584C1.67342 7.48199 1 7.76093 1 8.31791V11.5496ZM7.25 11.5496C7.25 11.7154 7.31589 11.8744 7.43311 11.9917L18.6827 23.2413C19.0766 23.6352 19.75 23.3562 19.75 22.7992V19.5675C19.75 19.4017 19.6841 19.2427 19.5669 19.1255L8.31725 7.87583C7.92339 7.48199 7.25 7.76093 7.25 8.31791V11.5496ZM14.5672 7.87584C14.1734 7.48199 13.5 7.76093 13.5 8.31791V11.5496C13.5 11.7154 13.5659 11.8744 13.6831 11.9917L18.6827 16.9913C19.0766 17.3852 19.75 17.1062 19.75 16.5492V13.3175C19.75 13.1517 19.6841 12.9927 19.5669 12.8755L14.5672 7.87584Z" fill="#F9BD2B"/>
<path d="M27.586 20.8946L21.7013 15.0099C21.3074 14.616 20.634 14.895 20.634 15.4519V23.6834C20.634 24.0287 20.9139 24.3086 21.2592 24.3086H30.3748C30.7201 24.3086 31 24.0287 31 23.6834V22.9338C31 22.5885 30.7189 22.3128 30.3765 22.2682C29.3258 22.1314 28.3429 21.6515 27.586 20.8946ZM23.634 22.3086C23.082 22.3086 22.634 21.8606 22.634 21.3086C22.634 20.7566 23.082 20.3086 23.634 20.3086C24.186 20.3086 24.634 20.7566 24.634 21.3086C24.634 21.8606 24.186 22.3086 23.634 22.3086Z" fill="black"/>
<path d="M1 23.6834C1 24.0287 1.27991 24.3086 1.62519 24.3086H4.49066C5.04764 24.3086 5.32658 23.6352 4.93274 23.2413L2.06726 20.3758C1.67341 19.982 1 20.2609 1 20.8179V23.6834ZM7.25 13.0586L2.06726 7.87584C1.67341 7.48199 1 7.76093 1 8.31791V11.5496C1 11.7154 1.06587 11.8744 1.18311 11.9917L7.25 18.0586V13.0586ZM2.06726 14.1258C1.67341 13.732 1 14.0109 1 14.5679V17.7996C1 17.9654 1.06587 18.1245 1.18311 18.2417L7.25 24.3086V19.3086L2.06726 14.1258Z" fill="#1D4AFF"/>
<path d="M13.5 13.3175C13.5 13.1517 13.4342 12.9927 13.3169 12.8755L8.31725 7.87584C7.92345 7.48199 7.25 7.76093 7.25 8.31791V11.5496C7.25 11.7154 7.31589 11.8744 7.43311 11.9917L13.5 18.0586V13.3175ZM7.25 24.3086H10.7407C11.2976 24.3086 11.5766 23.6352 11.1827 23.2413L7.25 19.3086V24.3086ZM7.25 13.0586V17.7996C7.25 17.9654 7.31589 18.1245 7.43311 18.2417L13.5 24.3086V19.5675C13.5 19.4017 13.4342 19.2427 13.3169 19.1254L7.25 13.0586Z" fill="#F54E00"/>
</svg>
