<svg width="32" height="32" viewBox="0 0 32 32" fill="none" xmlns="http://www.w3.org/2000/svg">
<g clip-path="url(#clip0_30_143)">
<path d="M2.8051 2.29395L19.405 1.06785C21.4441 0.892953 21.9679 1.01085 23.2501 1.94295L28.549 5.67585C29.4229 6.31785 29.7139 6.49275 29.7139 7.19175V27.6647C29.7139 28.9478 29.248 29.7068 27.6169 29.8226L8.3401 30.9902C7.1161 31.0481 6.5332 30.8732 5.8921 30.0563L1.99 24.9821C1.2901 24.0482 1 23.3492 1 22.532V4.33395C1 3.28485 1.4659 2.41005 2.8051 2.29395Z" fill="white"/>
<path fill-rule="evenodd" clip-rule="evenodd" d="M19.405 1.06815L2.8051 2.29425C1.4659 2.41005 1 3.28515 1 4.33395V22.532C1 23.3489 1.2901 24.0479 1.99 24.9821L5.8921 30.0559C6.5332 30.8728 7.1161 31.0481 8.3401 30.9899L27.6172 29.8228C29.2471 29.7067 29.7142 28.9478 29.7142 27.665V7.19205C29.7142 6.52905 29.4523 6.33795 28.6813 5.77215L23.2501 1.94295C21.9682 1.01085 21.4441 0.892953 19.405 1.06785V1.06815ZM8.776 6.85695C7.2019 6.96285 6.8449 6.98685 5.9509 6.25995L3.6781 4.45215C3.4471 4.21815 3.5632 3.92625 4.1452 3.86805L20.1031 2.70195C21.4432 2.58495 22.141 3.05205 22.6651 3.46005L25.402 5.44305C25.519 5.50215 25.81 5.85105 25.4599 5.85105L8.98 6.84315L8.776 6.85695ZM6.9409 27.4901V10.1102C6.9409 9.35115 7.174 9.00105 7.8718 8.94225L26.8 7.83405C27.442 7.77615 27.7321 8.18415 27.7321 8.94195V26.206C27.7321 26.965 27.6151 27.6071 26.5672 27.665L8.4541 28.715C7.4062 28.7729 6.9412 28.424 6.9412 27.4901H6.9409ZM24.8209 11.042C24.937 11.567 24.8209 12.092 24.2959 12.152L23.4229 12.3251V25.157C22.6648 25.565 21.967 25.7981 21.3838 25.7981C20.4517 25.7981 20.2189 25.5062 19.5208 24.632L13.8118 15.65V24.3401L15.6178 24.749C15.6178 24.749 15.6178 25.799 14.1607 25.799L10.1437 26.0321C10.0267 25.7981 10.1437 25.2152 10.5508 25.0991L11.5999 24.8081V13.3181L10.144 13.2002C10.027 12.6752 10.318 11.9171 11.134 11.8583L15.4441 11.5682L21.3841 20.6663V12.6173L19.87 12.4433C19.753 11.8004 20.2189 11.3333 20.8009 11.2763L24.8209 11.042Z" fill="black"/>
</g>
<defs>
<clipPath id="clip0_30_143">
<rect width="30" height="30" fill="white" transform="translate(1 1)"/>
</clipPath>
</defs>
</svg>
