<svg width="32" height="32" viewBox="0 0 32 32" fill="none" xmlns="http://www.w3.org/2000/svg">
<path d="M7.32458 19.965C7.32458 21.7086 5.91647 23.1178 4.17422 23.1178C2.43198 23.1178 1.02386 21.7086 1.02386 19.965C1.02386 18.2213 2.43198 16.8121 4.17422 16.8121H7.32458V19.965ZM8.89976 19.965C8.89976 18.2213 10.3079 16.8121 12.0501 16.8121C13.7924 16.8121 15.2005 18.2213 15.2005 19.965V27.8471C15.2005 29.5908 13.7924 31 12.0501 31C10.3079 31 8.89976 29.5908 8.89976 27.8471V19.965Z" fill="#E01E5A"/>
<path d="M12.0501 7.30573C10.3079 7.30573 8.89976 5.8965 8.89976 4.15287C8.89976 2.40924 10.3079 1 12.0501 1C13.7924 1 15.2005 2.40924 15.2005 4.15287V7.30573H12.0501ZM12.0501 8.90605C13.7924 8.90605 15.2005 10.3153 15.2005 12.0589C15.2005 13.8026 13.7924 15.2118 12.0501 15.2118H4.15036C2.40811 15.2118 1 13.8026 1 12.0589C1 10.3153 2.40811 8.90605 4.15036 8.90605H12.0501Z" fill="#36C5F0"/>
<path d="M24.6754 12.0589C24.6754 10.3153 26.0835 8.90605 27.8258 8.90605C29.568 8.90605 30.9761 10.3153 30.9761 12.0589C30.9761 13.8026 29.568 15.2118 27.8258 15.2118H24.6754V12.0589ZM23.1002 12.0589C23.1002 13.8026 21.6921 15.2118 19.9499 15.2118C18.2076 15.2118 16.7995 13.8026 16.7995 12.0589V4.15287C16.7995 2.40924 18.2076 1 19.9499 1C21.6921 1 23.1002 2.40924 23.1002 4.15287V12.0589Z" fill="#2EB67D"/>
<path d="M19.9499 24.6943C21.6921 24.6943 23.1002 26.1035 23.1002 27.8471C23.1002 29.5908 21.6921 31 19.9499 31C18.2076 31 16.7995 29.5908 16.7995 27.8471V24.6943H19.9499ZM19.9499 23.1178C18.2076 23.1178 16.7995 21.7086 16.7995 19.965C16.7995 18.2213 18.2076 16.8121 19.9499 16.8121H27.8497C29.5919 16.8121 31 18.2213 31 19.965C31 21.7086 29.5919 23.1178 27.8497 23.1178H19.9499Z" fill="#ECB22E"/>
</svg>
