<svg width="32" height="32" viewBox="0 0 32 32" fill="none" xmlns="http://www.w3.org/2000/svg">
<path fill-rule="evenodd" clip-rule="evenodd" d="M15.3631 4.60068C16.4986 4.60068 17.533 5.2553 18.022 6.28169L21.9174 14.4766C21.9174 14.4766 21.9174 14.4806 21.9133 14.4806C21.9133 14.4806 21.9133 14.4766 21.9174 14.4766C22.8306 13.3573 23.4933 12.0399 23.7762 10.6256C24.0954 9.02948 25.6471 7.99906 27.2433 8.31425C27.6227 8.39005 27.9835 8.53987 28.3051 8.75516C28.6266 8.97044 28.9026 9.24696 29.1172 9.56893C29.3319 9.8909 29.481 10.252 29.556 10.6316C29.6311 11.0112 29.6306 11.4019 29.5546 11.7813C28.9 15.0504 27.0735 17.9719 24.6005 20.1176L26.0148 23.0917C26.7988 24.7404 25.9785 26.7568 24.2409 27.274L24.1883 27.2902C23.9297 27.3629 23.663 27.3993 23.4044 27.3993C22.3013 27.3993 21.2466 26.777 20.7415 25.7183L19.4848 23.0756L16.9269 17.6931L15.6702 15.0504C15.6429 14.9931 15.5999 14.9448 15.5463 14.911C15.4927 14.8771 15.4305 14.8592 15.3671 14.8592C15.3037 14.8592 15.2416 14.8771 15.188 14.911C15.1343 14.9448 15.0914 14.9931 15.0641 15.0504L13.7791 17.7497C11.8192 17.3335 9.84728 16.1212 8.732 14.6463L12.7042 6.28977C12.9406 5.78435 13.3165 5.35691 13.7875 5.05771C14.2585 4.7585 14.8051 4.59995 15.3631 4.60068ZM4.23047 11.8662C5.73771 11.256 7.45508 11.9834 8.06526 13.4946C8.22285 13.8866 8.44914 14.2705 8.72796 14.6382L8.732 14.6423L8.86535 14.812C8.87747 14.8281 8.88959 14.8403 8.90172 14.8564L8.93809 14.9009C8.95829 14.9211 8.97445 14.9453 8.99466 14.9655C8.9987 14.9696 9.00274 14.9736 9.00274 14.9776L8.99466 14.9655C9.07144 15.0585 9.15629 15.1474 9.24115 15.2363C9.24519 15.2403 9.24519 15.2443 9.24923 15.2443C9.52805 15.5353 9.8392 15.8101 10.1746 16.0646C10.3322 16.1859 10.4938 16.299 10.6595 16.4122C10.6757 16.4202 10.6878 16.4324 10.704 16.4404C11.6374 17.0547 12.7082 17.5153 13.775 17.7416C14.2276 17.8386 14.6802 17.8911 15.1206 17.8952H15.1772C15.7631 17.8952 16.3491 17.8224 16.9229 17.685L19.4807 23.0675C18.0987 23.5322 16.6481 23.7868 15.1772 23.7868C13.8518 23.7868 12.5102 23.5564 11.2091 23.1402L9.98467 25.7143C9.81369 26.0738 9.57159 26.3949 9.273 26.6582C8.9744 26.9215 8.62551 27.1215 8.24743 27.2461C7.86934 27.3708 7.46991 27.4175 7.07327 27.3834C6.67663 27.3493 6.29102 27.2351 5.93976 27.0477C4.53353 26.3002 4.02034 24.5384 4.70325 23.0998L6.04482 20.2793C4.52949 18.9983 3.32127 17.4426 2.6222 15.7535L2.60199 15.701C1.99586 14.1937 2.72322 12.4763 4.23047 11.8662Z" fill="black"/>
<path fill-rule="evenodd" clip-rule="evenodd" d="M15.3631 4.60068C16.4986 4.60068 17.533 5.2553 18.022 6.28169L21.9174 14.4766C21.9174 14.4766 21.9174 14.4806 21.9133 14.4806C21.9133 14.4806 21.9133 14.4766 21.9174 14.4766C22.8306 13.3573 23.4933 12.0399 23.7762 10.6256C24.0954 9.02948 25.6471 7.99906 27.2433 8.31425C27.6227 8.39005 27.9835 8.53987 28.3051 8.75516C28.6266 8.97044 28.9026 9.24696 29.1172 9.56893C29.3319 9.8909 29.481 10.252 29.556 10.6316C29.6311 11.0112 29.6306 11.4019 29.5546 11.7813C28.9 15.0504 27.0735 17.9719 24.6005 20.1176L26.0148 23.0917C26.7988 24.7404 25.9785 26.7568 24.2409 27.274L24.1883 27.2902C23.9297 27.3629 23.663 27.3993 23.4044 27.3993C22.3013 27.3993 21.2466 26.777 20.7415 25.7183L19.4848 23.0756L16.9269 17.6931L15.6702 15.0504C15.6429 14.9931 15.5999 14.9448 15.5463 14.911C15.4927 14.8771 15.4305 14.8592 15.3671 14.8592C15.3037 14.8592 15.2416 14.8771 15.188 14.911C15.1343 14.9448 15.0914 14.9931 15.0641 15.0504L13.7791 17.7497C11.8192 17.3335 9.84728 16.1212 8.732 14.6463L12.7042 6.28977C12.9406 5.78435 13.3165 5.35691 13.7875 5.05771C14.2585 4.7585 14.8051 4.59995 15.3631 4.60068ZM4.23047 11.8662C5.73771 11.256 7.45508 11.9834 8.06526 13.4946C8.22285 13.8866 8.44914 14.2705 8.72796 14.6382L8.732 14.6423L8.86535 14.812C8.87747 14.8281 8.88959 14.8403 8.90172 14.8564L8.93809 14.9009C8.95829 14.9211 8.97445 14.9453 8.99466 14.9655C8.9987 14.9696 9.00274 14.9736 9.00274 14.9776L8.99466 14.9655C9.07144 15.0585 9.15629 15.1474 9.24115 15.2363C9.24519 15.2403 9.24519 15.2443 9.24923 15.2443C9.52805 15.5353 9.8392 15.8101 10.1746 16.0646C10.3322 16.1859 10.4938 16.299 10.6595 16.4122C10.6757 16.4202 10.6878 16.4324 10.704 16.4404C11.6374 17.0547 12.7082 17.5153 13.775 17.7416C14.2276 17.8386 14.6802 17.8911 15.1206 17.8952H15.1772C15.7631 17.8952 16.3491 17.8224 16.9229 17.685L19.4807 23.0675C18.0987 23.5322 16.6481 23.7868 15.1772 23.7868C13.8518 23.7868 12.5102 23.5564 11.2091 23.1402L9.98467 25.7143C9.81369 26.0738 9.57159 26.3949 9.273 26.6582C8.9744 26.9215 8.62551 27.1215 8.24743 27.2461C7.86934 27.3708 7.46991 27.4175 7.07327 27.3834C6.67663 27.3493 6.29102 27.2351 5.93976 27.0477C4.53353 26.3002 4.02034 24.5384 4.70325 23.0998L6.04482 20.2793C4.52949 18.9983 3.32127 17.4426 2.6222 15.7535L2.60199 15.701C1.99586 14.1937 2.72322 12.4763 4.23047 11.8662Z" fill="white"/>
<path fill-rule="evenodd" clip-rule="evenodd" d="M15.3613 5.98873C15.0675 5.98834 14.7797 6.07182 14.5317 6.22934C14.2838 6.38686 14.0859 6.61189 13.9614 6.87798L13.9578 6.88568L10.3795 14.4135C10.5717 14.6019 10.784 14.7846 11.0138 14.959L11.0209 14.9644C11.1389 15.0552 11.2655 15.1448 11.411 15.2445C11.4185 15.2492 11.4254 15.2537 11.4317 15.2578C11.4377 15.2618 11.4434 15.2655 11.4486 15.269C11.4547 15.273 11.4608 15.2769 11.4669 15.2809C11.9585 15.6044 12.4922 15.876 13.0362 16.0809L13.8113 14.4527C13.9515 14.1588 14.172 13.9107 14.4474 13.737C14.7227 13.5634 15.0415 13.4712 15.3671 13.4712C15.6927 13.4712 16.0116 13.5634 16.2869 13.737C16.5622 13.9107 16.7827 14.1588 16.9229 14.4527L16.9237 14.4543L18.1804 17.097L21.9942 25.1206C21.9943 25.1206 21.9942 25.1206 21.9942 25.1206C22.2614 25.6804 22.8184 26.0113 23.4044 26.0113C23.5307 26.0113 23.666 25.9938 23.7989 25.9578L23.8449 25.9436C24.7054 25.6875 25.2071 24.6255 24.7613 23.6878C24.7613 23.6878 24.7613 23.6879 24.7613 23.6878L23.347 20.7138C23.0792 20.1506 23.2198 19.4779 23.6909 19.0692C25.9546 17.1051 27.6051 14.4478 28.1936 11.5088C28.2338 11.3081 28.234 11.1016 28.1943 10.9008C28.1547 10.7001 28.0758 10.5091 27.9623 10.3389C27.8488 10.1686 27.7029 10.0224 27.5328 9.90856C27.3632 9.795 27.173 9.71589 26.9729 9.67571C26.1235 9.50881 25.3054 10.0572 25.1373 10.8979C24.8087 12.5405 24.0493 14.0472 23.0255 15.3139C22.9424 15.4244 22.8316 15.5376 22.6857 15.6349C22.4325 15.8037 22.1573 15.8687 21.9133 15.8687C21.5452 15.8687 21.1921 15.7224 20.9317 15.462C20.7893 15.3195 20.681 15.1492 20.6121 14.9639L16.7689 6.87865C16.7688 6.8786 16.7689 6.8787 16.7689 6.87865C16.5094 6.33408 15.9615 5.98873 15.3631 5.98873L15.3613 5.98873ZM21.9174 14.4806V15.8646C22.1593 15.8646 22.433 15.8001 22.685 15.6321C22.8126 15.5471 22.9131 15.4499 22.9917 15.3531L21.9223 14.4806C21.9207 14.4806 21.919 14.4806 21.9174 14.4806ZM22.0606 11.5446C22.2147 11.1568 22.3341 10.7584 22.4151 10.3534C22.8853 8.00231 25.1698 6.48997 27.5122 6.95251L27.5152 6.95311C28.0734 7.06463 28.6042 7.28505 29.0773 7.60177C29.5503 7.91849 29.9564 8.32531 30.2721 8.79899C30.5879 9.27267 30.8073 9.80392 30.9177 10.3624C31.0281 10.9209 31.0274 11.4956 30.9157 12.0538C30.2669 15.2936 28.5795 18.1986 26.2926 20.4438L27.2683 22.4956C28.3894 24.8533 27.2534 27.821 24.6436 28.6024L24.5965 28.6169C24.5888 28.6192 24.5811 28.6216 24.5733 28.6238C24.5703 28.6247 24.5672 28.6255 24.5642 28.6264C24.1841 28.7333 23.791 28.7873 23.4044 28.7873C21.7842 28.7873 20.2318 27.8735 19.4887 26.316L18.735 24.731C17.581 25.0193 16.3878 25.1748 15.1772 25.1748C14.0971 25.1748 13.0173 25.0384 11.9618 24.7891L11.2382 26.3104C10.9866 26.8394 10.6304 27.3119 10.191 27.6993C9.75168 28.0867 9.23833 28.381 8.68202 28.5644C8.1257 28.7478 7.53798 28.8165 6.95437 28.7663C6.37107 28.7162 5.804 28.5483 5.28737 28.2729C3.17711 27.1505 2.47287 24.5615 3.44933 22.5046L4.34852 20.6141C3.05825 19.3598 2.00467 17.8911 1.33966 16.2843C1.3352 16.2735 1.33087 16.2627 1.32668 16.2518L1.30991 16.2082C0.426529 13.9949 1.49504 11.4761 3.70961 10.5796C5.45891 9.87141 7.40001 10.3876 8.58271 11.7272L11.4489 5.69733C11.7975 4.95443 12.3505 4.32615 13.0432 3.88609C13.737 3.44537 14.5421 3.21174 15.364 3.21265C17.0361 3.213 18.5568 4.17691 19.2751 5.68474L22.0606 11.5446ZM15.364 3.21265C15.3643 3.21265 15.3646 3.21265 15.3649 3.21265L15.3631 4.60069V3.21265C15.3634 3.21265 15.3637 3.21265 15.364 3.21265ZM6.77788 14.0136C6.98111 14.5188 7.26002 14.9914 7.58309 15.4252C7.59646 15.4449 7.61038 15.4644 7.62485 15.4835C8.95912 17.248 11.2339 18.6282 13.4907 19.1075C13.5407 19.1181 13.5907 19.1258 13.6406 19.1309C14.1267 19.2258 14.6192 19.2787 15.1079 19.2832L15.1772 19.2832C15.4935 19.2832 15.8085 19.2655 16.1208 19.2312L17.5135 22.1617C16.7441 22.3173 15.9623 22.3987 15.1772 22.3987C14.0115 22.3987 12.8127 22.1959 11.632 21.8182C10.9703 21.6065 10.254 21.9166 9.9556 22.544L8.73121 25.118C8.64083 25.3081 8.5128 25.4779 8.35497 25.6171C8.19713 25.7563 8.0127 25.862 7.81284 25.9279C7.61298 25.9938 7.40183 26.0185 7.19216 26.0004C6.9825 25.9824 6.77866 25.9221 6.59298 25.823L6.59131 25.8221C5.88991 25.4493 5.56807 24.5153 5.95695 23.6956C5.95687 23.6957 5.95702 23.6954 5.95695 23.6956L7.29829 20.8755C7.56902 20.3063 7.42226 19.6262 6.94091 19.2192C5.56929 18.0598 4.51263 16.6831 3.91119 15.2382L3.89751 15.2027L3.8898 15.1831C3.56863 14.3844 3.95496 13.4752 4.75132 13.1528C5.54709 12.8306 6.45457 13.2139 6.77788 14.0136Z" fill="white"/>
<path fill-rule="evenodd" clip-rule="evenodd" d="M11.209 23.1402L13.775 17.7416C11.8152 17.3254 9.84322 16.1131 8.72794 14.6382L6.04479 20.2793C7.53587 21.5441 9.32599 22.5381 11.209 23.1402Z" fill="#1A007F"/>
<path fill-rule="evenodd" clip-rule="evenodd" d="M21.9174 14.4766C20.6283 16.0566 18.8382 17.2284 16.9228 17.685L19.4807 23.0675C21.3476 22.4371 23.0933 21.4188 24.6005 20.1136L21.9174 14.4766Z" fill="#4E000A"/>
<path fill-rule="evenodd" clip-rule="evenodd" d="M6.0448 20.2793L4.70323 23.0998C4.02032 24.5343 4.53351 26.3002 5.93974 27.0478C7.43082 27.8398 9.26537 27.2215 9.98465 25.7143L11.209 23.1402C9.3183 22.5307 7.56428 21.559 6.0448 20.2793Z" fill="#1A007F"/>
<path fill-rule="evenodd" clip-rule="evenodd" d="M27.2432 8.31829C26.8638 8.24231 26.4731 8.24185 26.0935 8.3169C25.7139 8.39195 25.3528 8.54106 25.0308 8.7557C24.7089 8.97034 24.4324 9.24632 24.2171 9.56786C24.0018 9.88941 23.852 10.2502 23.7762 10.6297C23.4933 12.044 22.8306 13.3613 21.9174 14.4806L24.5965 20.1217C27.0695 17.976 28.8959 15.0544 29.5506 11.7854C29.8698 10.1852 28.8353 8.63347 27.2432 8.31829Z" fill="#FF9396"/>
<path fill-rule="evenodd" clip-rule="evenodd" d="M16.9228 17.685C16.349 17.8224 15.7631 17.8952 15.1772 17.8952C14.7206 17.8952 14.2478 17.8426 13.775 17.7416C11.8152 17.3254 9.84323 16.1131 8.72795 14.6382C8.44913 14.2705 8.22284 13.8866 8.06524 13.4946C7.45507 11.9874 5.7377 11.26 4.23045 11.8662C2.72321 12.4763 1.99585 14.1937 2.60198 15.701C3.29297 17.4143 4.51331 18.9862 6.0448 20.2793C7.56282 21.5589 9.31551 22.5306 11.205 23.1402C12.5021 23.5564 13.8477 23.7868 15.1731 23.7868C16.644 23.7868 18.0947 23.5322 19.4767 23.0675L16.9228 17.685Z" fill="#002DC8"/>
<path fill-rule="evenodd" clip-rule="evenodd" d="M26.0108 23.0877L24.5964 20.1136L21.9173 14.4766L21.9133 14.4806C21.9133 14.4806 21.9133 14.4766 21.9173 14.4766L18.0219 6.28168C17.7828 5.77892 17.4062 5.35419 16.9356 5.05668C16.465 4.75918 15.9198 4.60107 15.363 4.60068C14.2276 4.60068 13.1931 5.2553 12.7042 6.28168L8.73197 14.6382C9.84725 16.1131 11.8192 17.3254 13.779 17.7416L15.064 15.0423C15.1852 14.7877 15.5489 14.7877 15.6702 15.0423L16.9269 17.685L19.4847 23.0675L20.7415 25.7102C20.9804 26.214 21.3576 26.6394 21.829 26.937C22.3005 27.2347 22.8468 27.3922 23.4044 27.3912C23.667 27.3912 23.9297 27.3548 24.1883 27.2821C25.9623 26.7932 26.8028 24.7525 26.0108 23.0877Z" fill="#FF536A"/>
<path fill-rule="evenodd" clip-rule="evenodd" d="M11.209 23.1402L13.775 17.7416C11.8152 17.3254 9.84321 16.1131 8.72793 14.6382L6.04479 20.2793C7.53588 21.5441 9.32598 22.5381 11.209 23.1402Z" fill="#1A007F"/>
<path fill-rule="evenodd" clip-rule="evenodd" d="M21.9174 14.4766C20.6283 16.0566 18.8382 17.2284 16.9228 17.685L19.4807 23.0675C21.3476 22.4371 23.0933 21.4188 24.6005 20.1136L21.9174 14.4766Z" fill="#4E000A"/>
<path fill-rule="evenodd" clip-rule="evenodd" d="M6.0448 20.2793L4.70323 23.0998C4.02032 24.5343 4.53351 26.3002 5.93973 27.0478C7.43082 27.8398 9.26537 27.2215 9.98465 25.7143L11.209 23.1402C9.3183 22.5307 7.56428 21.559 6.0448 20.2793Z" fill="#1A007F"/>
<path fill-rule="evenodd" clip-rule="evenodd" d="M27.2432 8.31829C26.8638 8.24232 26.4731 8.24184 26.0935 8.3169C25.7139 8.39195 25.3528 8.54106 25.0308 8.7557C24.7089 8.97035 24.4324 9.24632 24.2171 9.56786C24.0018 9.8894 23.852 10.2502 23.7762 10.6297C23.4933 12.044 22.8306 13.3613 21.9174 14.4806L24.5965 20.1217C27.0695 17.976 28.896 15.0544 29.5506 11.7854C29.8698 10.1852 28.8353 8.63348 27.2432 8.31829Z" fill="#FF9396"/>
<path fill-rule="evenodd" clip-rule="evenodd" d="M16.9228 17.685C16.349 17.8224 15.7631 17.8952 15.1772 17.8952C14.7205 17.8952 14.2478 17.8426 13.775 17.7416C11.8152 17.3254 9.84321 16.1131 8.72793 14.6382C8.44911 14.2705 8.22282 13.8866 8.06523 13.4946C7.45506 11.9874 5.73768 11.26 4.23044 11.8662C2.72319 12.4763 1.99583 14.1937 2.60196 15.701C3.29295 17.4143 4.5133 18.9862 6.04479 20.2793C7.56281 21.5589 9.3155 22.5306 11.205 23.1402C12.5021 23.5564 13.8477 23.7868 15.1731 23.7868C16.644 23.7868 18.0947 23.5322 19.4767 23.0675L16.9228 17.685Z" fill="#002DC8"/>
<path fill-rule="evenodd" clip-rule="evenodd" d="M26.0108 23.0877L24.5965 20.1136L21.9174 14.4766L21.9133 14.4806C21.9133 14.4806 21.9133 14.4766 21.9174 14.4766L18.022 6.28168C17.7828 5.77892 17.4062 5.35419 16.9356 5.05668C16.465 4.75917 15.9198 4.60107 15.3631 4.60068C14.2276 4.60068 13.1931 5.2553 12.7042 6.28168L8.73198 14.6382C9.84726 16.1131 11.8192 17.3254 13.779 17.7416L15.064 15.0423C15.1853 14.7877 15.5489 14.7877 15.6702 15.0423L16.9269 17.685L19.4847 23.0675L20.7415 25.7102C20.9804 26.214 21.3576 26.6394 21.8291 26.937C22.3005 27.2347 22.8469 27.3922 23.4044 27.3912C23.6671 27.3912 23.9297 27.3548 24.1883 27.2821C25.9623 26.7932 26.8028 24.7525 26.0108 23.0877Z" fill="#FF536A"/>
</svg>
