<svg width="32" height="32" viewBox="0 0 32 32" fill="none" xmlns="http://www.w3.org/2000/svg">
<g clip-path="url(#clip0_30_150)">
<path fill-rule="evenodd" clip-rule="evenodd" d="M16 1C7.7125 1 1 7.7125 1 16C1 22.6375 5.29375 28.2438 11.2562 30.2313C12.0062 30.3625 12.2875 29.9125 12.2875 29.5188C12.2875 29.1625 12.2688 27.9813 12.2688 26.725C8.5 27.4188 7.525 25.8062 7.225 24.9625C7.05625 24.5312 6.325 23.2 5.6875 22.8437C5.1625 22.5625 4.4125 21.8687 5.66875 21.85C6.85 21.8312 7.69375 22.9375 7.975 23.3875C9.325 25.6562 11.4813 25.0188 12.3438 24.625C12.475 23.65 12.8687 22.9937 13.3 22.6187C9.9625 22.2437 6.475 20.95 6.475 15.2125C6.475 13.5812 7.05625 12.2312 8.0125 11.1812C7.8625 10.8062 7.3375 9.26875 8.1625 7.20625C8.1625 7.20625 9.41875 6.8125 12.2875 8.74375C13.4875 8.40625 14.7625 8.2375 16.0375 8.2375C17.3125 8.2375 18.5875 8.40625 19.7875 8.74375C22.6563 6.79375 23.9125 7.20625 23.9125 7.20625C24.7375 9.26875 24.2125 10.8062 24.0625 11.1812C25.0188 12.2312 25.6 13.5625 25.6 15.2125C25.6 20.9687 22.0938 22.2437 18.7563 22.6187C19.3 23.0875 19.7688 23.9875 19.7688 25.3938C19.7688 27.4 19.75 29.0125 19.75 29.5188C19.75 29.9125 20.0313 30.3813 20.7813 30.2313C26.7063 28.2438 31 22.6187 31 16C31 7.7125 24.2875 1 16 1Z" fill="#1B1F23"/>
</g>
<defs>
<clipPath id="clip0_30_150">
<rect width="30" height="30" fill="white" transform="translate(1 1)"/>
</clipPath>
</defs>
</svg>
