<svg width="32" height="32" viewBox="0 0 32 32" fill="none" xmlns="http://www.w3.org/2000/svg">
<path d="M6 6C6 3.24 8.24 1 11 1H16V11H11C8.24 11 6 8.76 6 6Z" fill="#FF3737"/>
<path d="M16 1H21C23.76 1 26 3.24 26 6C26 8.76 23.76 11 21 11H16V1Z" fill="#FF7238"/>
<path d="M6 16C6 13.24 8.24 11 11 11H16V21H11C8.24 21 6 18.76 6 16Z" fill="#874FFF"/>
<path d="M26 16C26 18.76 23.76 21 21 21C18.24 21 16 18.76 16 16C16 13.24 18.24 11 21 11C23.76 11 26 13.24 26 16Z" fill="#00B6FF"/>
<path d="M11 31C13.76 31 16 28.76 16 26V21H11C8.24 21 6 23.24 6 26C6 28.76 8.24 31 11 31Z" fill="#23CB71"/>
</svg>
