<svg width="32" height="32" viewBox="0 0 32 32" fill="none" xmlns="http://www.w3.org/2000/svg">
<path d="M13.8537 1.57559C15.1816 0.808136 16.8183 0.808136 18.1463 1.57559L27.3766 6.90986C28.703 7.67636 29.52 9.09199 29.52 10.6239V21.3762C29.52 22.908 28.703 24.3237 27.3766 25.0901L18.1463 30.4245C16.8183 31.1918 15.1816 31.1918 13.8537 30.4245L4.62325 25.0901C3.29691 24.3237 2.47998 22.908 2.47998 21.3762V10.6239C2.47998 9.09199 3.29691 7.67635 4.62325 6.90986L13.8537 1.57559Z" fill="#05060F"/>
<path fill-rule="evenodd" clip-rule="evenodd" d="M8.60831 12.2232C8.60831 12.0464 8.79975 11.9357 8.95295 12.0242L14.3532 15.1397C14.4955 15.2218 14.5831 15.3735 14.5831 15.5378V23.1473C14.5831 23.3242 14.3917 23.4347 14.2385 23.3464L8.83824 20.2308C8.69596 20.1487 8.60831 19.997 8.60831 19.8327V17.5375C8.60831 17.4495 8.70314 17.3942 8.77974 17.4375L11.9605 19.2353C12.0371 19.2786 12.1319 19.2232 12.1319 19.1352V16.7533C12.1319 16.6429 12.0725 16.541 11.9763 16.4866L8.84176 14.7149C8.6975 14.6333 8.60831 14.4805 8.60831 14.3148V12.2232ZM23.0476 12.0242C23.2008 11.9357 23.3922 12.0464 23.3922 12.2232V14.3148C23.3922 14.4805 23.303 14.6333 23.1588 14.7149L20.0242 16.4866C19.9281 16.541 19.8686 16.6429 19.8686 16.7533V19.1352C19.8686 19.2232 19.9634 19.2786 20.04 19.2353L23.2208 17.4375C23.2974 17.3942 23.3922 17.4495 23.3922 17.5375V19.8327C23.3922 19.997 23.3046 20.1487 23.1623 20.2308L17.762 23.3464C17.6088 23.4347 17.4173 23.3242 17.4173 23.1473V15.5378C17.4173 15.3735 17.505 15.2218 17.6473 15.1397L23.0476 12.0242ZM15.5454 7.83291C15.8274 7.67239 16.1731 7.67239 16.455 7.83292L20.8991 10.3631C21.0534 10.4509 21.054 10.6731 20.9003 10.7618L18.679 12.0446C18.5855 12.0986 18.4703 12.0994 18.376 12.0465L16.1501 10.7986C16.057 10.7464 15.9435 10.7464 15.8504 10.7986L13.6245 12.0465C13.5303 12.0994 13.4151 12.0986 13.3215 12.0446L11.1002 10.7618C10.9465 10.6731 10.9471 10.4509 11.1014 10.3631L15.5454 7.83291Z" fill="white"/>
</svg>
