<svg width="32" height="32" viewBox="0 0 32 32" fill="none" xmlns="http://www.w3.org/2000/svg">
<path d="M29.9475 4.23889L23.7662 1.26269C23.0507 0.918196 22.1956 1.06351 21.6341 1.62503L1.39869 20.075C0.854409 20.5712 0.855035 21.4281 1.40004 21.9236L3.05293 23.4262C3.4985 23.8313 4.16953 23.8611 4.64926 23.4972L29.0174 5.011C29.8349 4.39081 31.0091 4.97389 31.0091 6.00004V5.92828C31.0091 5.20798 30.5965 4.55137 29.9475 4.23889Z" fill="#0065A9"/>
<path d="M29.9475 27.7611L23.7662 30.7374C23.0507 31.0819 22.1956 30.9365 21.6341 30.375L1.39869 11.9251C0.854409 11.4288 0.855035 10.5719 1.40004 10.0764L3.05293 8.5738C3.4985 8.16874 4.16953 8.13892 4.64926 8.50285L29.0174 26.989C29.8349 27.6092 31.0091 27.0261 31.0091 26V26.0718C31.0091 26.7921 30.5965 27.4487 29.9475 27.7611Z" fill="#007ACC"/>
<path d="M23.7665 30.7379C23.0508 31.0822 22.1957 30.9366 21.6341 30.375C22.326 31.0669 23.5091 30.5769 23.5091 29.5983V2.40165C23.5091 1.42312 22.326 0.933074 21.6341 1.62499C22.1957 1.06343 23.0508 0.917906 23.7665 1.2621L29.9467 4.23422C30.5961 4.54652 31.0091 5.20337 31.0091 5.92397V26.0761C31.0091 26.7967 30.5961 27.4536 29.9467 27.7659L23.7665 30.7379Z" fill="#1F9CF0"/>
<g style="mix-blend-mode:overlay" opacity="0.25">
<path fill-rule="evenodd" clip-rule="evenodd" d="M22.2644 30.7952C22.7369 30.9792 23.2757 30.9674 23.7526 30.738L29.9291 27.766C30.5781 27.4537 30.9909 26.7968 30.9909 26.0762V5.92404C30.9909 5.20341 30.5782 4.54656 29.9291 4.23426L23.7526 1.26216C23.1268 0.960992 22.3943 1.03476 21.8449 1.43411C21.7665 1.49116 21.6917 1.55486 21.6216 1.62505L9.79741 12.4125L4.64704 8.50293C4.16761 8.13897 3.49697 8.16882 3.05168 8.57385L1.39979 10.0765C0.855117 10.572 0.854493 11.4289 1.39844 11.9251L5.86501 16L1.39844 20.075C0.854493 20.5713 0.855117 21.4282 1.39979 21.9236L3.05168 23.4262C3.49697 23.8313 4.16761 23.8611 4.64704 23.4972L9.79741 19.5876L21.6216 30.3751C21.8086 30.5622 22.0283 30.7032 22.2644 30.7952ZM23.4954 9.18972L14.5236 16L23.4954 22.8104V9.18972Z" fill="url(#paint0_linear_50_396)"/>
</g>
<defs>
<linearGradient id="paint0_linear_50_396" x1="15.9909" y1="1.07739" x2="15.9909" y2="30.9227" gradientUnits="userSpaceOnUse">
<stop stop-color="white"/>
<stop offset="1" stop-color="white" stop-opacity="0"/>
</linearGradient>
</defs>
</svg>
