<svg width="32" height="32" viewBox="0 0 32 32" fill="none" xmlns="http://www.w3.org/2000/svg">
<path d="M4.91447 28.6172L3.9871 3.90708C3.95647 3.09101 4.58221 2.39939 5.39728 2.34845L26.415 1.03484C27.2446 0.98299 27.9592 1.61351 28.011 2.44315C28.013 2.4744 28.014 2.50571 28.014 2.53703V29.4631C28.014 30.2943 27.3401 30.9682 26.5088 30.9682C26.4863 30.9682 26.4638 30.9677 26.4413 30.9667L6.351 30.0644C5.56856 30.0292 4.94384 29.3999 4.91447 28.6172Z" fill="#FF4785"/>
<mask id="mask0_231_2" style="mask-type:alpha" maskUnits="userSpaceOnUse" x="3" y="1" width="26" height="30">
<path d="M4.91447 28.6172L3.9871 3.90708C3.95647 3.09101 4.58221 2.39939 5.39728 2.34845L26.415 1.03484C27.2446 0.98299 27.9592 1.61351 28.011 2.44315C28.013 2.4744 28.014 2.50571 28.014 2.53703V29.4631C28.014 30.2943 27.3401 30.9682 26.5088 30.9682C26.4863 30.9682 26.4638 30.9677 26.4413 30.9667L6.351 30.0644C5.56856 30.0292 4.94384 29.3999 4.91447 28.6172Z" fill="#FF4785"/>
</mask>
<g mask="url(#mask0_231_2)">
<path d="M21.7289 4.71151L21.8724 1.25865L24.7588 1.03186L24.8832 4.59268C24.8875 4.71661 24.7905 4.82058 24.6666 4.8249C24.6135 4.82676 24.5615 4.80975 24.5198 4.77689L23.4068 3.90005L22.0889 4.89972C21.9901 4.97466 21.8493 4.95532 21.7743 4.85653C21.7428 4.81495 21.7267 4.76367 21.7289 4.71151ZM18.0375 12.3153C18.0375 12.9009 21.9819 12.6202 22.5114 12.2089C22.5114 8.22121 20.3717 6.12576 16.4536 6.12576C12.5355 6.12576 10.3402 8.25382 10.3402 11.4459C10.3402 17.0054 17.843 17.1118 17.843 20.1443C17.843 20.9955 17.4262 21.501 16.5092 21.501C15.3143 21.501 14.8419 20.8907 14.8974 18.8159C14.8974 18.3658 10.3402 18.2254 10.2013 18.8159C9.84746 23.844 12.9801 25.2943 16.5647 25.2943C20.0382 25.2943 22.7615 23.4428 22.7615 20.0911C22.7615 14.1326 15.1475 14.2922 15.1475 11.3395C15.1475 10.1425 16.0368 9.98286 16.5647 9.98286C17.1205 9.98286 18.1209 10.0808 18.0375 12.3153Z" fill="white"/>
</g>
</svg>
