<svg width="32" height="32" viewBox="0 0 32 32" fill="none" xmlns="http://www.w3.org/2000/svg">
<g clip-path="url(#clip0_30_185)">
<mask id="mask0_30_185" style="mask-type:alpha" maskUnits="userSpaceOnUse" x="1" y="1" width="30" height="30">
<path fill-rule="evenodd" clip-rule="evenodd" d="M22.2736 30.7951C22.7461 30.9792 23.2848 30.9674 23.7618 30.7379L29.9382 27.7659C30.5873 27.4536 31 26.7968 31 26.0762V5.92399C31 5.20339 30.5873 4.54654 29.9383 4.23424L23.7618 1.26213C23.1359 0.960961 22.4034 1.03473 21.854 1.43408C21.7756 1.49113 21.7008 1.55483 21.6307 1.62502L9.80653 12.4124L4.65616 8.50288C4.1767 8.13895 3.50609 8.16877 3.0608 8.57383L1.40891 10.0765C0.864235 10.5719 0.86361 11.4288 1.40756 11.9251L5.87413 16L1.40756 20.075C0.86361 20.5712 0.864235 21.4281 1.40891 21.9236L3.0608 23.4262C3.50609 23.8313 4.1767 23.8611 4.65616 23.4971L9.80653 19.5876L21.6307 30.375C21.8177 30.5622 22.0374 30.7031 22.2736 30.7951ZM23.5046 9.18967L14.5327 16L23.5046 22.8104V9.18967Z" fill="white"/>
</mask>
<g mask="url(#mask0_30_185)">
<path d="M29.9384 4.23886L23.7571 1.26266C23.0416 0.918165 22.1865 1.06348 21.625 1.625L1.38957 20.075C0.845292 20.5712 0.845918 21.4281 1.39092 21.9236L3.04382 23.4262C3.48938 23.8313 4.16041 23.8611 4.64014 23.4971L29.0083 5.01097C29.8258 4.39078 31 4.97386 31 6.00001V5.92825C31 5.20795 30.5874 4.55134 29.9384 4.23886Z" fill="#0065A9"/>
<g filter="url(#filter0_d_30_185)">
<path d="M29.9384 27.7611L23.7571 30.7374C23.0416 31.0819 22.1865 30.9365 21.625 30.375L1.38957 11.9251C0.845292 11.4288 0.845918 10.5719 1.39092 10.0764L3.04382 8.5738C3.48938 8.16874 4.16041 8.13892 4.64014 8.50285L29.0083 26.989C29.8258 27.6092 31 27.0261 31 26V26.0718C31 26.7921 30.5874 27.4487 29.9384 27.7611Z" fill="#007ACC"/>
</g>
<g filter="url(#filter1_d_30_185)">
<path d="M23.7573 30.7379C23.0416 31.0822 22.1866 30.9366 21.625 30.375C22.3169 31.0669 23.5 30.5769 23.5 29.5983V2.40165C23.5 1.42312 22.3169 0.933074 21.625 1.62499C22.1866 1.06343 23.0416 0.917906 23.7573 1.2621L29.9376 4.23422C30.587 4.54652 31 5.20337 31 5.92397V26.0761C31 26.7967 30.587 27.4536 29.9376 27.7659L23.7573 30.7379Z" fill="#1F9CF0"/>
</g>
<g style="mix-blend-mode:overlay" opacity="0.25">
<path fill-rule="evenodd" clip-rule="evenodd" d="M22.2553 30.7952C22.7278 30.9792 23.2666 30.9674 23.7435 30.738L29.92 27.766C30.569 27.4537 30.9818 26.7968 30.9818 26.0762V5.92404C30.9818 5.20341 30.569 4.54656 29.92 4.23426L23.7435 1.26216C23.1176 0.960992 22.3851 1.03476 21.8358 1.43411C21.7574 1.49116 21.6826 1.55486 21.6125 1.62505L9.78829 12.4125L4.63792 8.50293C4.15849 8.13897 3.48786 8.16882 3.04257 8.57385L1.39068 10.0765C0.846 10.572 0.845376 11.4289 1.38933 11.9251L5.85589 16L1.38933 20.075C0.845376 20.5713 0.846 21.4282 1.39068 21.9236L3.04257 23.4262C3.48786 23.8313 4.15849 23.8611 4.63792 23.4972L9.78829 19.5876L21.6125 30.3751C21.7995 30.5622 22.0191 30.7032 22.2553 30.7952ZM23.4863 9.18972L14.5145 16L23.4863 22.8104V9.18972Z" fill="url(#paint0_linear_30_185)"/>
</g>
</g>
</g>
<defs>
<filter id="filter0_d_30_185" x="-1.51824" y="5.74872" width="35.0182" height="27.6737" filterUnits="userSpaceOnUse" color-interpolation-filters="sRGB">
<feFlood flood-opacity="0" result="BackgroundImageFix"/>
<feColorMatrix in="SourceAlpha" type="matrix" values="0 0 0 0 0 0 0 0 0 0 0 0 0 0 0 0 0 0 127 0" result="hardAlpha"/>
<feOffset/>
<feGaussianBlur stdDeviation="1.25"/>
<feColorMatrix type="matrix" values="0 0 0 0 0 0 0 0 0 0 0 0 0 0 0 0 0 0 0.25 0"/>
<feBlend mode="overlay" in2="BackgroundImageFix" result="effect1_dropShadow_30_185"/>
<feBlend mode="normal" in="SourceGraphic" in2="effect1_dropShadow_30_185" result="shape"/>
</filter>
<filter id="filter1_d_30_185" x="19.125" y="-1.42267" width="14.375" height="34.8454" filterUnits="userSpaceOnUse" color-interpolation-filters="sRGB">
<feFlood flood-opacity="0" result="BackgroundImageFix"/>
<feColorMatrix in="SourceAlpha" type="matrix" values="0 0 0 0 0 0 0 0 0 0 0 0 0 0 0 0 0 0 127 0" result="hardAlpha"/>
<feOffset/>
<feGaussianBlur stdDeviation="1.25"/>
<feColorMatrix type="matrix" values="0 0 0 0 0 0 0 0 0 0 0 0 0 0 0 0 0 0 0.25 0"/>
<feBlend mode="overlay" in2="BackgroundImageFix" result="effect1_dropShadow_30_185"/>
<feBlend mode="normal" in="SourceGraphic" in2="effect1_dropShadow_30_185" result="shape"/>
</filter>
<linearGradient id="paint0_linear_30_185" x1="15.9818" y1="1.07739" x2="15.9818" y2="30.9227" gradientUnits="userSpaceOnUse">
<stop stop-color="white"/>
<stop offset="1" stop-color="white" stop-opacity="0"/>
</linearGradient>
<clipPath id="clip0_30_185">
<rect width="30" height="30" fill="white" transform="translate(1 1)"/>
</clipPath>
</defs>
</svg>
