<svg width="32" height="32" viewBox="0 0 32 32" fill="none" xmlns="http://www.w3.org/2000/svg">
<path d="M18.4327 15.8514L17.0911 15.8775C17.1034 16.5091 17.5546 17.0467 18.1746 17.1682C18.7945 17.2897 19.4153 16.9623 19.6651 16.382L18.4327 15.8514ZM18.2267 5.2355L19.5682 5.20947L19.5682 5.20947L18.2267 5.2355ZM14.4799 5.30821L15.8214 5.28218L15.8214 5.28218L14.4799 5.30821ZM13.3443 15.9502C13.3587 16.6911 13.971 17.2801 14.7119 17.2657C15.4528 17.2513 16.0418 16.639 16.0274 15.8981L13.3443 15.9502ZM13.2792 12.8524C13.2936 13.5933 13.9059 14.1823 14.6468 14.1679C15.3877 14.1536 15.9767 13.5413 15.9623 12.8003L13.2792 12.8524ZM10.874 12.8991L9.53241 12.9251L9.53246 12.9273L10.874 12.8991ZM10.9391 15.9969L9.59754 16.0251C9.59825 16.0586 9.60021 16.0921 9.60343 16.1256L10.9391 15.9969ZM9.58089 15.423C9.59527 16.1639 10.2076 16.7529 10.9485 16.7385C11.6894 16.7241 12.2784 16.1118 12.264 15.3709L9.58089 15.423ZM7.17564 15.4697L5.83408 15.4957L5.83411 15.4969L7.17564 15.4697ZM7.28919 21.0653L8.63075 21.0393L8.63073 21.0381L7.28919 21.0653ZM14.9282 28.4135L14.9543 29.7551L14.9543 29.7551L14.9282 28.4135ZM17.4521 29.7066C18.1931 29.6922 18.782 29.0799 18.7677 28.339C18.7533 27.5981 18.141 27.0091 17.4001 27.0235L17.4521 29.7066ZM17.1663 28.3701L17.1403 27.0285C16.3994 27.0429 15.8105 27.6551 15.8248 28.396C15.8391 29.1369 16.4513 29.7259 17.1921 29.7116L17.1663 28.3701ZM23.1309 25.2784L24.2288 26.0499L24.2288 26.0499L23.1309 25.2784ZM24.0759 22.5275L25.4177 22.5239L24.0759 22.5275ZM19.5618 23.8711C20.3002 23.9338 20.9496 23.3859 21.0122 22.6475C21.0748 21.9091 20.527 21.2598 19.7886 21.1971L19.5618 23.8711ZM15.8209 21.98L14.8533 22.9097L15.8209 21.98ZM15.9611 19.3467L15.0834 18.3317L15.9611 19.3467ZM12.9839 17.6823L12.8552 16.3467L12.8552 16.3467L12.9839 17.6823ZM16.0197 15.4985C16.0029 14.7576 15.3888 14.1706 14.6479 14.1873C13.907 14.2041 13.32 14.8182 13.3367 15.5591L16.0197 15.4985ZM8.54444 16.2276C8.47337 15.4899 7.81778 14.9496 7.08014 15.0206C6.34249 15.0917 5.80213 15.7473 5.87319 16.4849L8.54444 16.2276ZM9.25363 18.0417L9.12495 16.7061L9.12495 16.7061L9.25363 18.0417ZM25.6429 8.55498L24.3996 8.05031C24.3921 8.0688 24.385 8.08746 24.3783 8.10627L25.6429 8.55498ZM24.6114 6.11407L25.1161 4.87079L25.1161 4.87079L24.6114 6.11407ZM23.1773 6.12427L23.6996 7.36025L23.6996 7.36025L23.1773 6.12427ZM22.2698 6.9383L21.0976 6.28528L21.0644 6.34496L21.0374 6.40772L22.2698 6.9383ZM19.7742 15.8254L19.5682 5.20947L16.8851 5.26153L17.0911 15.8775L19.7742 15.8254ZM19.5682 5.20947C19.56 4.78728 19.4688 4.37083 19.2996 3.98391L16.8407 5.05879C16.8687 5.1228 16.8838 5.19169 16.8851 5.26154L19.5682 5.20947ZM19.2996 3.98391C19.1305 3.59698 18.8868 3.24717 18.5825 2.95442L16.722 4.88849C16.7724 4.93691 16.8127 4.99478 16.8407 5.05879L19.2996 3.98391ZM18.5825 2.95442C18.2781 2.66168 17.9191 2.43175 17.5259 2.27775L16.5473 4.77654C16.6123 4.80202 16.6717 4.84006 16.722 4.88849L18.5825 2.95442ZM17.5259 2.27775C17.1327 2.12375 16.7131 2.04871 16.2909 2.0569L16.3429 4.74001C16.4128 4.73865 16.4822 4.75107 16.5473 4.77654L17.5259 2.27775ZM16.2909 2.0569C15.8687 2.06509 15.4522 2.15637 15.0653 2.3255L16.1402 4.78444C16.2042 4.75646 16.2731 4.74136 16.3429 4.74001L16.2909 2.0569ZM15.0653 2.3255C14.6784 2.49464 14.3286 2.73833 14.0358 3.04266L15.9699 4.90308C16.0183 4.85274 16.0762 4.81242 16.1402 4.78444L15.0653 2.3255ZM14.0358 3.04266C13.7431 3.34699 13.5131 3.706 13.3592 4.09919L15.8579 5.07786C15.8834 5.01282 15.9215 4.95343 15.9699 4.90308L14.0358 3.04266ZM13.3592 4.09919C13.2052 4.49238 13.1301 4.91206 13.1383 5.33425L15.8214 5.28218C15.8201 5.21233 15.8325 5.14291 15.8579 5.07786L13.3592 4.09919ZM13.1383 5.33425L13.3443 15.9502L16.0274 15.8981L15.8214 5.28218L13.1383 5.33425ZM15.9623 12.8003C15.9458 11.9477 15.5912 11.1365 14.9766 10.5453L13.1161 12.4794C13.2178 12.5772 13.2765 12.7114 13.2792 12.8524L15.9623 12.8003ZM14.9766 10.5453C14.362 9.95408 13.5376 9.63124 12.685 9.64778L12.7371 12.3309C12.8781 12.3282 13.0145 12.3816 13.1161 12.4794L14.9766 10.5453ZM12.685 9.64778C11.8323 9.66433 11.0212 10.0189 10.4299 10.6335L12.364 12.494C12.4618 12.3923 12.596 12.3336 12.7371 12.3309L12.685 9.64778ZM10.4299 10.6335C9.83872 11.2482 9.51587 12.0725 9.53242 12.9251L12.2155 12.8731C12.2128 12.732 12.2662 12.5956 12.364 12.494L10.4299 10.6335ZM9.53246 12.9273L9.59754 16.0251L12.2806 15.9687L12.2155 12.8709L9.53246 12.9273ZM12.264 15.3709C12.2474 14.5183 11.8929 13.7071 11.2782 13.1159L9.41781 15.0499C9.51949 15.1477 9.57815 15.2819 9.58089 15.423L12.264 15.3709ZM11.2782 13.1159C10.6636 12.5247 9.83931 12.2018 8.98665 12.2184L9.03872 14.9015C9.17977 14.8987 9.31614 14.9521 9.41781 15.0499L11.2782 13.1159ZM8.98665 12.2184C8.13399 12.2349 7.32283 12.5895 6.73161 13.2041L8.66567 15.0645C8.76348 14.9629 8.89767 14.9042 9.03872 14.9015L8.98665 12.2184ZM6.73161 13.2041C6.14039 13.8187 5.81754 14.643 5.83408 15.4957L8.51719 15.4436C8.51446 15.3026 8.56786 15.1662 8.66567 15.0645L6.73161 13.2041ZM5.83411 15.4969L5.94766 21.0925L8.63073 21.0381L8.51717 15.4424L5.83411 15.4969ZM5.94764 21.0914C5.99311 23.4346 6.96755 25.6638 8.65662 27.2885L10.5171 25.3545C9.34093 24.2231 8.66241 22.6709 8.63075 21.0393L5.94764 21.0914ZM8.65662 27.2885C10.3457 28.9133 12.611 29.8005 14.9543 29.7551L14.9022 27.072C13.2706 27.1036 11.6932 26.4858 10.5171 25.3545L8.65662 27.2885ZM14.9543 29.7551L17.4521 29.7066L17.4001 27.0235L14.9022 27.072L14.9543 29.7551ZM17.4001 27.0235L17.1403 27.0285L17.1924 29.7116L17.4521 29.7066L17.4001 27.0235ZM17.1921 29.7116C18.6553 29.6835 20.0886 29.2924 21.3633 28.5735L20.045 26.236C19.1574 26.7366 18.1594 27.0089 17.1405 27.0285L17.1921 29.7116ZM21.3633 28.5735C22.5742 27.8905 23.3742 27.2658 24.2288 26.0499L22.0331 24.5068C21.4603 25.322 20.9964 25.6994 20.045 26.236L21.3633 28.5735ZM24.2288 26.0499C24.8551 25.1587 25.4212 23.8197 25.4177 22.5239L22.7341 22.5311C22.7357 23.1281 22.4347 23.9354 22.0331 24.5068L24.2288 26.0499ZM25.4177 22.5239C25.4127 20.6468 24.4709 18.4024 22.2008 17.7795L21.4905 20.3674C22.1534 20.5493 22.7309 21.3267 22.7341 22.5311L25.4177 22.5239ZM19.7886 21.1971C19.3983 21.164 18.9854 21.1767 18.6405 21.1895C18.2673 21.2034 17.9541 21.2184 17.6496 21.2123C16.979 21.1987 16.8142 21.0771 16.7884 21.0503L14.8533 22.9097C15.6851 23.7753 16.8511 23.8803 17.5952 23.8953C17.9979 23.9035 18.413 23.8834 18.7403 23.8713C19.0959 23.858 19.3558 23.8537 19.5618 23.8711L19.7886 21.1971ZM16.7884 21.0503C16.6819 20.9395 16.6408 20.8125 16.6426 20.7114C16.644 20.63 16.6724 20.5055 16.8388 20.3616L15.0834 18.3317C13.5532 19.655 13.693 21.7021 14.8533 22.9097L16.7884 21.0503ZM16.8388 20.3616C16.8373 20.3629 16.9646 20.2711 17.3468 20.1867C17.6976 20.1092 18.1473 20.063 18.6558 20.054C19.6823 20.0359 20.7759 20.1713 21.4905 20.3674L22.2008 17.7795C21.2014 17.5052 19.848 17.3489 18.6084 17.3709C17.9838 17.3819 17.3456 17.4387 16.7681 17.5662C16.2218 17.6869 15.5802 17.9021 15.0834 18.3317L16.8388 20.3616ZM9.60343 16.1256C9.68522 16.9744 10.1009 17.7561 10.759 18.2985L12.4658 16.2277C12.357 16.1379 12.2882 16.0086 12.2747 15.8682L9.60343 16.1256ZM10.759 18.2985C11.417 18.8409 12.2637 19.0997 13.1125 19.0179L12.8552 16.3467C12.7148 16.3602 12.5747 16.3174 12.4658 16.2277L10.759 18.2985ZM13.1125 19.0179C13.9614 18.9361 14.7431 18.5205 15.2855 17.8624L13.2147 16.1555C13.1249 16.2644 12.9956 16.3332 12.8552 16.3467L13.1125 19.0179ZM15.2855 17.8624C15.8735 17.149 16.0377 16.2957 16.0197 15.4985L13.3367 15.5591C13.3458 15.9615 13.2588 16.102 13.2147 16.1555L15.2855 17.8624ZM5.87319 16.4849C5.95498 17.3338 6.37063 18.1155 7.02872 18.6579L8.7356 16.5871C8.62673 16.4973 8.55797 16.368 8.54444 16.2276L5.87319 16.4849ZM7.02872 18.6579C7.68681 19.2003 8.53342 19.4591 9.38231 19.3773L9.12495 16.7061C8.98451 16.7196 8.84446 16.6768 8.7356 16.5871L7.02872 18.6579ZM9.38231 19.3773C10.2312 19.2955 11.0128 18.8799 11.5553 18.2218L9.48442 16.5149C9.39468 16.6238 9.26538 16.6925 9.12495 16.7061L9.38231 19.3773ZM11.5553 18.2218C12.0977 17.5637 12.3565 16.7171 12.2747 15.8682L9.60343 16.1256C9.61696 16.266 9.57415 16.406 9.48442 16.5149L11.5553 18.2218ZM26.8861 9.05964C27.2069 8.26944 27.2006 7.38419 26.8687 6.59862L24.3967 7.64319C24.4516 7.77314 24.4526 7.91959 24.3996 8.05031L26.8861 9.05964ZM26.8687 6.59862C26.5367 5.81306 25.9063 5.19154 25.1161 4.87079L24.1068 7.35736C24.2375 7.41042 24.3418 7.51324 24.3967 7.64319L26.8687 6.59862ZM25.1161 4.87079C24.3259 4.55004 23.4406 4.55633 22.6551 4.88828L23.6996 7.36025C23.8296 7.30534 23.976 7.3043 24.1068 7.35736L25.1161 4.87079ZM22.6551 4.88828C21.9913 5.16877 21.4447 5.66231 21.0976 6.28528L23.442 7.59132C23.4994 7.48827 23.5899 7.40663 23.6996 7.36025L22.6551 4.88828ZM23.1033 19.541C23.8179 17.6191 24.7694 14.9832 25.541 12.8316C25.9271 11.755 26.2686 10.7982 26.5137 10.1105C26.6362 9.76668 26.7346 9.49008 26.8024 9.29939C26.8363 9.20404 26.8625 9.13017 26.8803 9.08011C26.8892 9.05508 26.8959 9.036 26.9005 9.02317C26.9028 9.01675 26.9045 9.01189 26.9057 9.00863C26.9062 9.00701 26.9067 9.00577 26.907 9.00495C26.9071 9.00454 26.9072 9.00422 26.9073 9.00401C26.9073 9.00391 26.9074 9.00382 26.9074 9.00377C26.9074 9.00372 26.9074 9.00369 25.6429 8.55498C24.3783 8.10627 24.3783 8.10629 24.3783 8.10633C24.3783 8.10638 24.3782 8.10645 24.3782 8.10655C24.3781 8.10675 24.378 8.10705 24.3779 8.10745C24.3776 8.10824 24.3772 8.10945 24.3766 8.11105C24.3755 8.11425 24.3738 8.11905 24.3715 8.1254C24.367 8.13812 24.3603 8.15708 24.3514 8.18198C24.3337 8.2318 24.3076 8.30541 24.2738 8.40048C24.2062 8.59063 24.108 8.86662 23.9857 9.20981C23.7411 9.89621 23.4002 10.8513 23.0149 11.9258C22.2437 14.0764 21.2966 16.6997 20.588 18.6058L23.1033 19.541ZM19.6651 16.382L23.5023 7.46888L21.0374 6.40772L17.2002 15.3209L19.6651 16.382Z" fill="#D085FF"/>
</svg>
