<svg width="32" height="32" viewBox="0 0 32 32" fill="none" xmlns="http://www.w3.org/2000/svg">
<path d="M4 16.5C4 18.1415 4.32332 19.767 4.95151 21.2835C5.57969 22.8001 6.50043 24.1781 7.66116 25.3388C8.8219 26.4996 10.1999 27.4203 11.7165 28.0485C13.233 28.6767 14.8585 29 16.5 29C18.1415 29 19.767 28.6767 21.2835 28.0485C22.8001 27.4203 24.1781 26.4996 25.3388 25.3388C26.4996 24.1781 27.4203 22.8001 28.0485 21.2835C28.6767 19.767 29 18.1415 29 16.5C29 14.8585 28.6767 13.233 28.0485 11.7165C27.4203 10.1999 26.4996 8.8219 25.3388 7.66117C24.1781 6.50043 22.8001 5.57969 21.2835 4.95151C19.767 4.32332 18.1415 4 16.5 4C14.8585 4 13.233 4.32332 11.7165 4.95151C10.1999 5.57969 8.8219 6.50043 7.66116 7.66117C6.50043 8.8219 5.57969 10.1999 4.95151 11.7165C4.32332 13.233 4 14.8585 4 16.5Z" stroke="#4498FF" stroke-width="2.77778" stroke-linecap="round" stroke-linejoin="round"/>
<path d="M12.3333 13.7222H12.3472" stroke="#4498FF" stroke-width="2.77778" stroke-linecap="round" stroke-linejoin="round"/>
<path d="M20.6667 13.7222H20.6805" stroke="#4498FF" stroke-width="2.77778" stroke-linecap="round" stroke-linejoin="round"/>
<path d="M13.0278 20.6667C13.4804 21.1286 14.0206 21.4956 14.6168 21.7461C15.2131 21.9967 15.8533 22.1257 16.5 22.1257C17.1467 22.1257 17.7869 21.9967 18.3832 21.7461C18.9794 21.4956 19.5196 21.1286 19.9722 20.6667" stroke="#4498FF" stroke-width="2.77778" stroke-linecap="round" stroke-linejoin="round"/>
</svg>
