<svg width="32" height="32" viewBox="0 0 32 32" fill="none" xmlns="http://www.w3.org/2000/svg">
<path d="M10.5863 15.7647V12.0882C10.5863 11.5032 10.8187 10.9421 11.2324 10.5284C11.6461 10.1148 12.2072 9.88235 12.7922 9.88235C13.3773 9.88235 13.9383 10.1148 14.352 10.5284C14.7657 10.9421 14.9981 11.5032 14.9981 12.0882V14.2941" stroke="#85CD78" stroke-width="2.94118" stroke-linecap="round" stroke-linejoin="round"/>
<path d="M14.9981 13.5588V12.0882C14.9981 11.5032 15.2305 10.9421 15.6442 10.5284C16.0579 10.1148 16.619 9.88235 17.204 9.88235C17.789 9.88235 18.3501 10.1148 18.7638 10.5284C19.1775 10.9421 19.4099 11.5032 19.4099 12.0882V14.2941" stroke="#85CD78" stroke-width="2.94118" stroke-linecap="round" stroke-linejoin="round"/>
<path d="M23.8216 14.2941V6.20588C23.8216 5.62085 24.054 5.05977 24.4677 4.64609C24.8814 4.2324 25.4425 4 26.0275 4C26.6125 4 27.1736 4.2324 27.5873 4.64609C28.001 5.05977 28.2334 5.62085 28.2334 6.20588V20.1765C28.2334 22.5166 27.3038 24.7609 25.649 26.4156C23.9943 28.0704 21.75 29 19.4099 29H16.4687H16.7746C15.3133 29.0002 13.8748 28.6376 12.5884 27.9445C11.3019 27.2515 10.2077 26.2498 9.40397 25.0294C9.30751 24.8826 9.21143 24.7355 9.11573 24.5882C8.65691 23.8838 7.04662 21.0765 4.28338 16.1647C4.00169 15.664 3.92644 15.0732 4.07365 14.5179C4.22085 13.9626 4.57889 13.4866 5.07162 13.1912C5.59644 12.8763 6.21143 12.7458 6.81891 12.8204C7.42639 12.895 7.99153 13.1704 8.42456 13.6029L10.5863 15.7647" stroke="#85CD78" stroke-width="2.94118" stroke-linecap="round" stroke-linejoin="round"/>
<path d="M19.4099 12.0882C19.4099 11.5032 19.6423 10.9421 20.0559 10.5284C20.4696 10.1148 21.0307 9.88235 21.6157 9.88235C22.2008 9.88235 22.7618 10.1148 23.1755 10.5284C23.5892 10.9421 23.8216 11.5032 23.8216 12.0882V14.2941" stroke="#85CD78" stroke-width="2.94118" stroke-linecap="round" stroke-linejoin="round"/>
</svg>
