<svg width="32" height="32" viewBox="0 0 32 32" fill="none" xmlns="http://www.w3.org/2000/svg">
<path fill-rule="evenodd" clip-rule="evenodd" d="M8 7.26426V16.1551C9.03635 15.6801 10.172 15.4276 11.3333 15.4276C13.4274 15.4276 15.4379 16.2487 16.9333 17.7145C17.9303 18.6917 19.2707 19.239 20.6667 19.239C21.8836 19.239 23.0583 18.8231 24 18.0691V9.17819C22.9637 9.65318 21.828 9.90571 20.6667 9.90571C18.5726 9.90571 16.5621 9.08467 15.0667 7.61885C14.0697 6.64164 12.7294 6.09428 11.3333 6.09428C10.1164 6.09428 8.94175 6.51022 8 7.26426ZM8 19.2643C8.94175 18.5102 10.1164 18.0943 11.3333 18.0943C12.7294 18.0943 14.0697 18.6416 15.0667 19.6189C16.5621 21.0847 18.5726 21.9057 20.6667 21.9057C22.7607 21.9057 24.7712 21.0847 26.2667 19.6189C26.5225 19.3681 26.6667 19.0249 26.6667 18.6667V6.66666C26.6667 6.1298 26.3447 5.64531 25.8497 5.43739C25.3548 5.22946 24.7834 5.33867 24.4 5.71447C23.403 6.69168 22.0627 7.23904 20.6667 7.23904C19.2707 7.23904 17.9303 6.69168 16.9333 5.71447C15.4379 4.24865 13.4274 3.42761 11.3333 3.42761C9.23931 3.42761 7.22877 4.24865 5.73334 5.71447C5.4775 5.96524 5.33334 6.30842 5.33334 6.66666V28C5.33334 28.7364 5.93029 29.3333 6.66667 29.3333C7.40305 29.3333 8 28.7364 8 28V19.2643Z" fill="#FF6348"/>
</svg>
