<svg width="32" height="32" viewBox="0 0 32 32" fill="none" xmlns="http://www.w3.org/2000/svg">
<path d="M4 7.09375C4 6.27324 4.32595 5.48633 4.90614 4.90614C5.48633 4.32595 6.27324 4 7.09375 4H25.6562C26.4768 4 27.2637 4.32595 27.8439 4.90614C28.4241 5.48633 28.75 6.27324 28.75 7.09375V25.6562C28.75 26.4768 28.4241 27.2637 27.8439 27.8439C27.2637 28.4241 26.4768 28.75 25.6562 28.75H7.09375C6.27324 28.75 5.48633 28.4241 4.90614 27.8439C4.32595 27.2637 4 26.4768 4 25.6562V7.09375Z" fill="#E3E3E3"/>
<path fill-rule="evenodd" clip-rule="evenodd" d="M12.3425 11.5568C12.3304 11.4811 12.2215 11.4811 12.2094 11.5568L11.6365 15.1477C11.6298 15.1899 11.5858 15.2153 11.5459 15.2L8.14961 13.9007C8.078 13.8733 8.02352 13.9677 8.08305 14.016L10.9064 16.3076C10.9396 16.3346 10.9396 16.3853 10.9064 16.4122L8.08305 18.7038C8.02352 18.7521 8.078 18.8465 8.14961 18.8191L11.5459 17.5198C11.5858 17.5045 11.6298 17.5299 11.6365 17.5722L12.2094 21.163C12.2215 21.2387 12.3304 21.2387 12.3425 21.163L12.9154 17.5722C12.9222 17.5299 12.9661 17.5045 13.0061 17.5198L16.4023 18.8191C16.4739 18.8465 16.5284 18.7521 16.4689 18.7038L13.6455 16.4122C13.6123 16.3853 13.6123 16.3346 13.6455 16.3076L16.4689 14.016C16.5284 13.9677 16.4739 13.8733 16.4023 13.9007L13.0061 15.2C12.9661 15.2153 12.9222 15.1899 12.9154 15.1477L12.3425 11.5568ZM20.7906 11.5568C20.7785 11.4811 20.6695 11.4811 20.6575 11.5568L20.0846 15.1477C20.0778 15.1899 20.0339 15.2153 19.9939 15.2L16.5977 13.9007C16.5261 13.8733 16.4716 13.9677 16.5311 14.016L19.3545 16.3076C19.3877 16.3346 19.3877 16.3853 19.3545 16.4122L16.5311 18.7038C16.4716 18.7521 16.5261 18.8465 16.5977 18.8191L19.9939 17.5198C20.0339 17.5045 20.0778 17.5299 20.0846 17.5722L20.6575 21.163C20.6695 21.2387 20.7785 21.2387 20.7906 21.163L21.3635 17.5722C21.3702 17.5299 21.4142 17.5045 21.4541 17.5198L24.8504 18.8191C24.922 18.8465 24.9765 18.7521 24.9169 18.7038L22.0936 16.4122C22.0604 16.3853 22.0604 16.3346 22.0936 16.3076L24.9169 14.016C24.9765 13.9677 24.922 13.8733 24.8504 13.9007L21.4541 15.2C21.4142 15.2153 21.3702 15.1899 21.3635 15.1477L20.7906 11.5568Z" fill="#555555"/>
</svg>
