<svg width="32" height="32" viewBox="0 0 32 32" fill="none" xmlns="http://www.w3.org/2000/svg">
<path d="M28.154 2.0819C28.6565 1.90057 29.2188 2.0258 29.5965 2.4035C29.974 2.78125 30.0995 3.34362 29.9181 3.84596L20.9619 28.6477C20.949 28.6836 20.9334 28.7193 20.9175 28.754C20.7472 29.1254 20.4742 29.4402 20.1303 29.6609C19.7863 29.8817 19.3859 29.9999 18.9772 30C18.5682 30 18.1668 29.8818 17.8227 29.6609C17.4916 29.4483 17.227 29.148 17.0557 28.7944V28.7957L12.4377 19.561L3.20429 14.9443L3.20564 14.943C2.85182 14.7716 2.55039 14.5073 2.33774 14.176C2.11706 13.8319 2 13.4316 2 13.0228C2 12.6141 2.11706 12.2137 2.33774 11.8697L2.4252 11.7432C2.63854 11.458 2.92077 11.2302 3.24601 11.0811C3.28071 11.0652 3.3164 11.0511 3.35231 11.0381L28.154 2.0819ZM15.1409 18.8061L18.8816 26.2889L25.2261 8.72234L15.1409 18.8061ZM5.70976 13.1157L13.1925 16.8564L23.2777 6.77125L5.70976 13.1157Z" fill="#AC91FF"/>
</svg>
