<svg width="32" height="32" viewBox="0 0 32 32" fill="none" xmlns="http://www.w3.org/2000/svg">
<path d="M18.3752 21.8516C19.0097 21.4098 19.8816 21.5657 20.3234 22.2002C20.7652 22.8347 20.6092 23.7066 19.9748 24.1484C18.9184 24.884 17.6622 25.2791 16.375 25.2791C15.0877 25.2791 13.8316 24.884 12.7752 24.1484C12.1407 23.7066 11.9847 22.8347 12.4266 22.2002C12.8684 21.5657 13.7403 21.4098 14.3748 21.8516C14.9617 22.2602 15.6599 22.4791 16.375 22.4791C17.0901 22.4791 17.7883 22.2602 18.3752 21.8516ZM13.5887 17.4C14.3619 17.4 14.9887 18.0268 14.9887 18.8C14.9887 19.5732 14.3619 20.2 13.5887 20.2H13.575C12.8018 20.2 12.175 19.5732 12.175 18.8C12.175 18.0268 12.8018 17.4 13.575 17.4H13.5887ZM19.1887 17.4C19.9619 17.4 20.5887 18.0268 20.5887 18.8C20.5887 19.5732 19.9619 20.2 19.1887 20.2H19.175C18.4018 20.2 17.775 19.5732 17.775 18.8C17.775 18.0268 18.4018 17.4 19.175 17.4H19.1887ZM27.575 25.8C27.575 26.9139 27.1322 27.9819 26.3445 28.7695C25.5569 29.5572 24.4889 30 23.375 30H9.37499C8.26108 30 7.19311 29.5572 6.40546 28.7695C5.6178 27.9819 5.17499 26.9139 5.17499 25.8V6.2C5.17499 5.08609 5.6178 4.01812 6.40546 3.23047C7.19311 2.44282 8.26108 2 9.37499 2H19.175L19.3131 2.00684C19.6337 2.0386 19.935 2.18036 20.1648 2.41016L27.1648 9.41016C27.4274 9.67271 27.575 10.0287 27.575 10.4V25.8ZM22.7953 9L20.575 6.77969V9H22.7953ZM7.97499 25.8L7.98182 25.9381C8.01359 26.2587 8.15534 26.56 8.38514 26.7898C8.6477 27.0524 9.00369 27.2 9.37499 27.2H23.375C23.7463 27.2 24.1023 27.0524 24.3648 26.7898C24.6274 26.5273 24.775 26.1713 24.775 25.8V11.8H20.575C19.8324 11.8 19.1204 11.5048 18.5953 10.9797C18.0702 10.4546 17.775 9.74261 17.775 9V4.8H9.37499C9.00368 4.8 8.64769 4.94761 8.38514 5.21016C8.12259 5.47271 7.97499 5.8287 7.97499 6.2V25.8Z" fill="#85CD78"/>
</svg>
