<svg width="32" height="32" viewBox="0 0 32 32" fill="none" xmlns="http://www.w3.org/2000/svg">
<path d="M26.5 2C27.4283 2 28.3182 2.36901 28.9746 3.02539C29.631 3.68177 30 4.57174 30 5.5V26.5C30 27.4283 29.631 28.3182 28.9746 28.9746C28.3182 29.631 27.4283 30 26.5 30H5.5C4.57174 30 3.68177 29.631 3.02539 28.9746C2.36901 28.3182 2 27.4283 2 26.5V5.5C2 4.57174 2.36901 3.68177 3.02539 3.02539C3.68177 2.36901 4.57174 2 5.5 2H26.5ZM9.9541 13.1367C9.53239 13.1368 9.12831 13.3044 8.83008 13.6025C8.53172 13.9009 8.36328 14.3056 8.36328 14.7275V22.6816C8.36328 23.1036 8.53172 23.5083 8.83008 23.8066C9.12831 24.1048 9.53241 24.2723 9.9541 24.2725C10.376 24.2725 10.7808 24.1049 11.0791 23.8066C11.3775 23.5083 11.5459 23.1036 11.5459 22.6816V14.7275C11.5459 14.3056 11.3775 13.9009 11.0791 13.6025C10.7808 13.3042 10.376 13.1367 9.9541 13.1367ZM19.5 13.1367C18.8617 13.1364 18.2297 13.2636 17.6416 13.5117L17.4434 13.6025C17.221 13.3802 16.9373 13.2284 16.6289 13.167C16.3203 13.1056 15.9996 13.1374 15.709 13.2578C15.4185 13.3782 15.1699 13.5823 14.9951 13.8438C14.8204 14.1052 14.7276 14.4131 14.7275 14.7275V22.6816C14.7275 23.1036 14.895 23.5083 15.1934 23.8066C15.4917 24.105 15.8964 24.2725 16.3184 24.2725C16.7402 24.2724 17.145 24.105 17.4434 23.8066C17.7416 23.5083 17.9092 23.1035 17.9092 22.6816V17.9092C17.9092 17.4873 18.0767 17.0825 18.375 16.7842C18.6734 16.4858 19.0781 16.3184 19.5 16.3184C19.9219 16.3184 20.3266 16.4858 20.625 16.7842C20.9233 17.0825 21.0908 17.4873 21.0908 17.9092V22.6816C21.0908 23.1035 21.2584 23.5083 21.5566 23.8066C21.855 24.105 22.2598 24.2724 22.6816 24.2725C23.1036 24.2725 23.5083 24.105 23.8066 23.8066C24.105 23.5083 24.2725 23.1036 24.2725 22.6816V17.9092C24.2725 16.6434 23.77 15.4292 22.875 14.5342C21.9799 13.6391 20.7658 13.1367 19.5 13.1367ZM9.9541 8.36328C9.56459 8.36344 9.18854 8.50679 8.89746 8.76562C8.60629 9.02456 8.42059 9.38158 8.375 9.76855L8.36328 9.9707C8.36379 10.3761 8.51959 10.7658 8.79785 11.0605C9.07621 11.3554 9.45653 11.5329 9.86133 11.5566C10.2661 11.5804 10.6646 11.4487 10.9756 11.1885C11.2865 10.9282 11.4863 10.5589 11.5342 10.1562L11.5459 9.9541C11.5458 9.53235 11.3773 9.12832 11.0791 8.83008C10.7807 8.53172 10.376 8.36328 9.9541 8.36328Z" fill="#4498FF"/>
</svg>
