<svg width="32" height="32" viewBox="0 0 32 32" fill="none" xmlns="http://www.w3.org/2000/svg">
<path fill-rule="evenodd" clip-rule="evenodd" d="M4.53114 4.53114C3.95095 5.11133 3.625 5.89824 3.625 6.71875V25.2812C3.625 26.1018 3.95095 26.8887 4.53114 27.4689C5.11133 28.0491 5.89824 28.375 6.71875 28.375H25.2812C26.1018 28.375 26.8887 28.0491 27.4689 27.4689C28.0491 26.8887 28.375 26.1018 28.375 25.2812V6.71875C28.375 5.89824 28.0491 5.11133 27.4689 4.53114C26.8887 3.95095 26.1018 3.625 25.2812 3.625H6.71875C5.89824 3.625 5.11133 3.95095 4.53114 4.53114ZM9.66188 13.8806C9.9256 13.6169 10.2833 13.4688 10.6562 13.4688C11.0292 13.4688 11.3869 13.6169 11.6506 13.8806C11.9143 14.1444 12.0625 14.502 12.0625 14.875V21.9062C12.0625 22.2792 11.9143 22.6369 11.6506 22.9006C11.3869 23.1643 11.0292 23.3125 10.6562 23.3125C10.2833 23.3125 9.9256 23.1643 9.66188 22.9006C9.39816 22.6369 9.25 22.2792 9.25 21.9062V14.875C9.25 14.502 9.39816 14.1444 9.66188 13.8806ZM17.4513 13.8006C17.9711 13.5813 18.5296 13.4684 19.0938 13.4688C20.2126 13.4688 21.2857 13.9132 22.0769 14.7044C22.868 15.4956 23.3125 16.5686 23.3125 17.6875V21.9062C23.3125 22.2792 23.1643 22.6369 22.9006 22.9006C22.6369 23.1643 22.2792 23.3125 21.9062 23.3125C21.5333 23.3125 21.1756 23.1643 20.9119 22.9006C20.6482 22.6369 20.5 22.2792 20.5 21.9062V17.6875C20.5 17.3145 20.3518 16.9569 20.0881 16.6931C19.8244 16.4294 19.4667 16.2812 19.0938 16.2812C18.7208 16.2812 18.3631 16.4294 18.0994 16.6931C17.8357 16.9569 17.6875 17.3145 17.6875 17.6875V21.9062C17.6875 22.2792 17.5393 22.6369 17.2756 22.9006C17.0119 23.1643 16.6542 23.3125 16.2812 23.3125C15.9083 23.3125 15.5506 23.1643 15.2869 22.9006C15.0232 22.6369 14.875 22.2792 14.875 21.9062V14.875C14.8751 14.5969 14.9576 14.3251 15.1121 14.0939C15.2666 13.8627 15.4862 13.6825 15.7431 13.5761C16.0001 13.4697 16.2828 13.4418 16.5555 13.4961C16.8283 13.5503 17.0788 13.6842 17.2755 13.8808L17.4513 13.8006ZM9.72198 9.60538C9.97937 9.3765 10.3118 9.25005 10.6562 9.25C11.0292 9.25 11.3869 9.39816 11.6506 9.66188C11.9143 9.9256 12.0625 10.2833 12.0625 10.6562L12.0527 10.8348C12.0103 11.1908 11.8337 11.5171 11.5588 11.7471C11.284 11.9772 10.9316 12.0936 10.5738 12.0726C10.216 12.0516 9.87974 11.8947 9.63369 11.6341C9.38764 11.3735 9.2504 11.0287 9.25 10.6703L9.25984 10.4917C9.30014 10.1496 9.46458 9.83426 9.72198 9.60538Z" fill="#4498FF"/>
</svg>
