<svg width="32" height="32" viewBox="0 0 32 32" fill="none" xmlns="http://www.w3.org/2000/svg">
<path d="M10.2632 6.63159H7.63158C6.93364 6.63159 6.26429 6.90885 5.77077 7.40236C5.27725 7.89588 5 8.56523 5 9.26317V25.0526C5 25.7506 5.27725 26.4199 5.77077 26.9135C6.26429 27.407 6.93364 27.6842 7.63158 27.6842H15.1276" stroke="#85CD78" stroke-width="2.63158" stroke-linecap="round" stroke-linejoin="round"/>
<path d="M23.4211 15.8421V9.26317C23.4211 8.56523 23.1438 7.89588 22.6503 7.40236C22.1568 6.90885 21.4874 6.63159 20.7895 6.63159H18.1579" stroke="#85CD78" stroke-width="2.63158" stroke-linecap="round" stroke-linejoin="round"/>
<path d="M10.2632 6.63158C10.2632 5.93364 10.5404 5.26429 11.0339 4.77077C11.5275 4.27725 12.1968 4 12.8947 4H15.5263C16.2243 4 16.8936 4.27725 17.3871 4.77077C17.8806 5.26429 18.1579 5.93364 18.1579 6.63158C18.1579 7.32952 17.8806 7.99887 17.3871 8.49239C16.8936 8.9859 16.2243 9.26316 15.5263 9.26316H12.8947C12.1968 9.26316 11.5275 8.9859 11.0339 8.49239C10.5404 7.99887 10.2632 7.32952 10.2632 6.63158Z" stroke="#85CD78" stroke-width="2.63158" stroke-linecap="round" stroke-linejoin="round"/>
<path d="M10.2632 14.5263H15.5263" stroke="#85CD78" stroke-width="2.63158" stroke-linecap="round" stroke-linejoin="round"/>
<path d="M10.2632 19.7895H14.2105" stroke="#85CD78" stroke-width="2.63158" stroke-linecap="round" stroke-linejoin="round"/>
<path d="M18.1579 23.079C18.1579 23.9514 18.5045 24.7881 19.1214 25.405C19.7383 26.0219 20.5749 26.3684 21.4474 26.3684C22.3198 26.3684 23.1565 26.0219 23.7734 25.405C24.3903 24.7881 24.7368 23.9514 24.7368 23.079C24.7368 22.2065 24.3903 21.3699 23.7734 20.753C23.1565 20.1361 22.3198 19.7895 21.4474 19.7895C20.5749 19.7895 19.7383 20.1361 19.1214 20.753C18.5045 21.3699 18.1579 22.2065 18.1579 23.079Z" stroke="#85CD78" stroke-width="2.63158" stroke-linecap="round" stroke-linejoin="round"/>
<path d="M24.0789 25.7105L27.3684 29" stroke="#85CD78" stroke-width="2.63158" stroke-linecap="round" stroke-linejoin="round"/>
</svg>
