<svg width="32" height="32" viewBox="0 0 32 32" fill="none" xmlns="http://www.w3.org/2000/svg">
<path fill-rule="evenodd" clip-rule="evenodd" d="M9.62212 8.07031C9.60717 7.97656 9.47225 7.97656 9.4573 8.07031L8.5579 13.7077C8.54955 13.76 8.49517 13.7914 8.44567 13.7725L3.11387 11.7327C3.02521 11.6988 2.95776 11.8156 3.03146 11.8754L7.46386 15.473C7.50501 15.5064 7.50501 15.5692 7.46386 15.6026L3.03146 19.2002C2.95776 19.26 3.02521 19.3768 3.11387 19.3429L8.44567 17.3031C8.49517 17.2842 8.54955 17.3156 8.5579 17.3679L9.4573 23.0053C9.47225 23.099 9.60717 23.099 9.62212 23.0053L10.5215 17.3679C10.5299 17.3156 10.5843 17.2842 10.6337 17.3031L15.9655 19.3429C15.9774 19.3475 15.9889 19.3493 15.9997 19.3489C16.0107 19.3494 16.0224 19.3476 16.0345 19.3429L21.3663 17.3032C21.4157 17.2842 21.4701 17.3156 21.4785 17.368L22.3779 23.0053C22.3928 23.0991 22.5277 23.0991 22.5427 23.0053L23.4421 17.368C23.4504 17.3156 23.5048 17.2842 23.5543 17.3032L28.8861 19.3429C28.9748 19.3769 29.0422 19.26 28.9685 19.2002L24.5361 15.6026C24.495 15.5692 24.495 15.5064 24.5361 15.473L28.9685 11.8754C29.0422 11.8156 28.9748 11.6988 28.8861 11.7327L23.5543 13.7725C23.5048 13.7914 23.4504 13.76 23.4421 13.7077L22.5427 8.07033C22.5277 7.97658 22.3928 7.97658 22.3779 8.07033L21.4785 13.7077C21.4701 13.76 21.4157 13.7914 21.3663 13.7725L16.0345 11.7327C16.0226 11.7282 16.0111 11.7263 16.0003 11.7267C15.9893 11.7262 15.9776 11.7281 15.9655 11.7327L10.6337 13.7725C10.5843 13.7914 10.5299 13.76 10.5215 13.7077L9.62212 8.07031ZM16 11.9144L11.6156 15.473C11.5744 15.5064 11.5744 15.5692 11.6156 15.6026L16 19.1613L20.3844 15.6026C20.4256 15.5692 20.4256 15.5064 20.3844 15.473L16 11.9144Z" fill="#555555"/>
</svg>
