<svg width="32" height="32" viewBox="0 0 32 32" fill="none" xmlns="http://www.w3.org/2000/svg">
<path d="M4.5 8.25C4.5 7.52065 4.78973 6.82118 5.30546 6.30546C5.82118 5.78973 6.52065 5.5 7.25 5.5H23.75C24.4793 5.5 25.1788 5.78973 25.6945 6.30546C26.2103 6.82118 26.5 7.52065 26.5 8.25V24.75C26.5 25.4793 26.2103 26.1788 25.6945 26.6945C25.1788 27.2103 24.4793 27.5 23.75 27.5H7.25C6.52065 27.5 5.82118 27.2103 5.30546 26.6945C4.78973 26.1788 4.5 25.4793 4.5 24.75V8.25Z" stroke="#AC91FF" stroke-width="2.75" stroke-linecap="round" stroke-linejoin="round"/>
<path d="M4.5 17.875H8.625L12.75 22H18.25L22.375 17.875H26.5" stroke="#AC91FF" stroke-width="2.75" stroke-linecap="round" stroke-linejoin="round"/>
</svg>
