<svg width="32" height="32" viewBox="0 0 32 32" fill="none" xmlns="http://www.w3.org/2000/svg">
<path d="M23.25 27H8.125C7.03098 27 5.98177 26.5654 5.20818 25.7918C4.4346 25.0182 4 23.969 4 22.875C4 21.781 4.4346 20.7318 5.20818 19.9582C5.98177 19.1846 7.03098 18.75 8.125 18.75H23.25C22.156 18.75 21.1068 19.1846 20.3332 19.9582C19.5596 20.7318 19.125 21.781 19.125 22.875C19.125 23.969 19.5596 25.0182 20.3332 25.7918C21.1068 26.5654 22.156 27 23.25 27ZM23.25 27H24.625C25.719 27 26.7682 26.5654 27.5418 25.7918C28.3154 25.0182 28.75 23.969 28.75 22.875V7.75C28.75 7.02065 28.4603 6.32118 27.9445 5.80546C27.4288 5.28973 26.7293 5 26 5H12.25C11.5207 5 10.8212 5.28973 10.3055 5.80546C9.78973 6.32118 9.5 7.02065 9.5 7.75V18.75" stroke="#85CD78" stroke-width="2.75" stroke-linecap="round" stroke-linejoin="round"/>
</svg>
