<svg width="32" height="32" viewBox="0 0 32 32" fill="none" xmlns="http://www.w3.org/2000/svg">
<path d="M5 7.75C5 7.02065 5.28973 6.32118 5.80546 5.80546C6.32118 5.28973 7.02065 5 7.75 5H24.25C24.9793 5 25.6788 5.28973 26.1945 5.80546C26.7103 6.32118 27 7.02065 27 7.75V24.25C27 24.9793 26.7103 25.6788 26.1945 26.1945C25.6788 26.7103 24.9793 27 24.25 27H7.75C7.02065 27 6.32118 26.7103 5.80546 26.1945C5.28973 25.6788 5 24.9793 5 24.25V7.75Z" stroke="#AC91FF" stroke-width="2.75" stroke-linecap="round" stroke-linejoin="round"/>
<path d="M5 17.375H9.125L13.25 21.5H18.75L22.875 17.375H27" stroke="#AC91FF" stroke-width="2.75" stroke-linecap="round" stroke-linejoin="round"/>
</svg>
