<svg width="32" height="32" viewBox="0 0 32 32" fill="none" xmlns="http://www.w3.org/2000/svg">
<path d="M16.4821 13.572C16.2962 13.4633 16.0926 13.3856 15.8792 13.3432C15.5021 13.2682 15.1112 13.3067 14.7559 13.4538C14.4007 13.6009 14.097 13.8501 13.8834 14.1698C13.6697 14.4895 13.5556 14.8653 13.5556 15.2499V15.25V21.5C13.5556 22.0157 13.7604 22.5103 14.1251 22.8749C14.4897 23.2396 14.9843 23.4444 15.5 23.4444C16.0157 23.4444 16.5103 23.2396 16.8749 22.8749C17.2396 22.5103 17.4444 22.0157 17.4444 21.5V17.75C17.4444 17.6027 17.503 17.4614 17.6072 17.3572C17.7114 17.253 17.8527 17.1944 18 17.1944C18.1473 17.1944 18.2886 17.253 18.3928 17.3572C18.497 17.4614 18.5556 17.6027 18.5556 17.75V21.5C18.5556 22.0157 18.7604 22.5103 19.1251 22.8749C19.4897 23.2396 19.9843 23.4444 20.5 23.4444C21.0157 23.4444 21.5103 23.2396 21.8749 22.8749C22.2396 22.5103 22.4444 22.0157 22.4444 21.5V17.75C22.4444 16.5713 21.9762 15.4408 21.1427 14.6073C20.3093 13.7739 19.179 13.3057 18.0004 13.3056C18.0003 13.3056 18.0001 13.3056 18 13.3056L16.4821 13.572ZM10.5 9.55556H10.4999C10.0236 9.55562 9.56398 9.73047 9.20807 10.0469C8.85217 10.3634 8.6248 10.7995 8.56908 11.2725L8.56655 11.294L8.56536 11.3155L8.55661 11.4743L8.55553 11.4938L8.55556 11.5133C8.55611 12.0089 8.74588 12.4856 9.08609 12.8459C9.32758 13.1017 9.63193 13.2852 9.96515 13.3806C9.65046 13.4706 9.36065 13.6395 9.12507 13.8751C8.76042 14.2397 8.55556 14.7343 8.55556 15.25V21.5C8.55556 22.0157 8.76042 22.5103 9.12507 22.8749C9.48973 23.2396 9.9843 23.4444 10.5 23.4444C11.0157 23.4444 11.5103 23.2396 11.8749 22.8749C12.2396 22.5103 12.4444 22.0157 12.4444 21.5V15.25C12.4444 14.7343 12.2396 14.2397 11.8749 13.8751C11.6393 13.6395 11.3495 13.4706 11.0348 13.3806C11.2941 13.3064 11.5375 13.1784 11.748 13.0022C12.1281 12.6841 12.3723 12.2329 12.4308 11.7408L12.4334 11.7189L12.4346 11.697L12.4434 11.5382L12.4444 11.5191V11.5C12.4444 10.9843 12.2396 10.4897 11.8749 10.1251C11.5103 9.76042 11.0157 9.55556 10.5 9.55556ZM21.75 4.69444C23.2234 4.69444 24.6365 5.27976 25.6784 6.32163C26.7202 7.3635 27.3056 8.77658 27.3056 10.25V22.75C27.3056 24.2234 26.7202 25.6365 25.6784 26.6784C24.6365 27.7202 23.2234 28.3056 21.75 28.3056H9.25C7.77658 28.3056 6.3635 27.7202 5.32163 26.6784C4.27976 25.6365 3.69444 24.2234 3.69444 22.75V10.25C3.69444 8.77658 4.27976 7.3635 5.32163 6.32163C6.3635 5.27976 7.77658 4.69444 9.25 4.69444H21.75Z" fill="#4498FF" stroke="#4498FF" stroke-width="1.38889"/>
</svg>
