<svg width="32" height="32" viewBox="0 0 32 32" fill="none" xmlns="http://www.w3.org/2000/svg">
<path d="M18.138 15.7863L16.8314 16.0918C16.9752 16.707 17.5287 17.1385 18.1604 17.1279C18.7921 17.1174 19.3308 16.6676 19.454 16.048L18.138 15.7863ZM15.7208 5.44719L17.0274 5.14172L17.0274 5.14172L15.7208 5.44719ZM12.0717 6.30032L13.3783 5.99486L13.3783 5.99486L12.0717 6.30032ZM13.1823 16.9449C13.351 17.6665 14.0728 18.1147 14.7944 17.946C15.516 17.7773 15.9642 17.0556 15.7955 16.334L13.1823 16.9449ZM12.4721 13.929C12.6408 14.6506 13.3625 15.0988 14.0841 14.9301C14.8057 14.7614 15.2539 14.0396 15.0852 13.318L12.4721 13.929ZM10.1296 14.4766L8.82299 14.7821L8.82348 14.7842L10.1296 14.4766ZM10.8398 17.4926L9.53369 17.8002C9.54139 17.8328 9.5503 17.8652 9.56043 17.8972L10.8398 17.4926ZM9.39174 17.2148C9.56045 17.9364 10.2822 18.3847 11.0038 18.2159C11.7254 18.0472 12.1736 17.3255 12.0049 16.6039L9.39174 17.2148ZM7.04921 17.7625L5.74263 18.068L5.7429 18.0691L7.04921 17.7625ZM8.32818 23.2112L9.63475 22.9058L9.63448 22.9046L8.32818 23.2112ZM17.3327 28.8032L17.6381 30.1097L17.6381 30.1097L17.3327 28.8032ZM20.0709 29.541C20.7925 29.3723 21.2407 28.6505 21.072 27.9289C20.9033 27.2073 20.1815 26.7591 19.4599 26.9278L20.0709 29.541ZM19.5124 28.2936L19.2069 26.987C18.4854 27.1557 18.0372 27.8773 18.2058 28.5989C18.3744 29.3205 19.0961 29.7688 19.8177 29.6002L19.5124 28.2936ZM24.7004 24.025L25.935 24.5504L25.935 24.5504L24.7004 24.025ZM25.0504 21.1375L26.3619 20.8539L25.0504 21.1375ZM20.9161 23.3937C21.6513 23.3009 22.172 22.6296 22.0792 21.8943C21.9863 21.1591 21.315 20.6384 20.5798 20.7313L20.9161 23.3937ZM16.8629 22.325L16.1107 23.4362L16.8629 22.325ZM16.4504 19.7204L15.3802 18.911L16.4504 19.7204ZM13.1913 18.7141L12.7867 17.4348L12.7867 17.4348L13.1913 18.7141ZM15.7045 15.9448C15.5335 15.2237 14.8103 14.7778 14.0892 14.9488C13.3682 15.1198 12.9223 15.843 13.0933 16.564L15.7045 15.9448ZM8.54605 18.218C8.32259 17.5115 7.56865 17.1198 6.86209 17.3433C6.15552 17.5668 5.76389 18.3207 5.98735 19.0273L8.54605 18.218ZM9.61826 19.8442L9.21364 18.5648L9.21364 18.5648L9.61826 19.8442ZM23.6665 7.14566L22.3452 6.91161C22.3418 6.93126 22.3387 6.95098 22.3361 6.97077L23.6665 7.14566ZM22.1483 4.9738L22.3823 3.65256L22.3823 3.65256L22.1483 4.9738ZM20.7479 5.28308L21.5167 6.38284L21.5167 6.38284L20.7479 5.28308ZM20.0303 6.2686L18.7476 5.87462L18.7276 5.93993L18.7143 6.00695L20.0303 6.2686ZM19.4446 15.4809L17.0274 5.14172L14.4142 5.75266L16.8314 16.0918L19.4446 15.4809ZM17.0274 5.14172C16.9312 4.73054 16.7551 4.34231 16.5089 3.99921L14.3284 5.56365C14.3692 5.62041 14.3983 5.68463 14.4142 5.75266L17.0274 5.14172ZM16.5089 3.99921C16.2627 3.65611 15.9514 3.36486 15.5926 3.14209L14.1769 5.42186C14.2362 5.45871 14.2877 5.50689 14.3284 5.56365L16.5089 3.99921ZM15.5926 3.14209C15.2339 2.91931 14.8348 2.76937 14.4182 2.70083L13.9826 5.34886C14.0515 5.3602 14.1175 5.385 14.1769 5.42186L15.5926 3.14209ZM14.4182 2.70083C14.0015 2.63229 13.5754 2.6465 13.1642 2.74263L13.7751 5.35578C13.8432 5.33987 13.9136 5.33752 13.9826 5.34886L14.4182 2.70083ZM13.1642 2.74263C12.753 2.83876 12.3648 3.01494 12.0217 3.26111L13.5861 5.44155C13.6429 5.40082 13.7071 5.37168 13.7751 5.35578L13.1642 2.74263ZM12.0217 3.26111C11.6786 3.50728 11.3873 3.81862 11.1646 4.17734L13.4443 5.59312C13.4812 5.53378 13.5294 5.48227 13.5861 5.44155L12.0217 3.26111ZM11.1646 4.17734C10.9418 4.53607 10.7918 4.93516 10.7233 5.35184L13.3713 5.78742C13.3827 5.71849 13.4075 5.65247 13.4443 5.59312L11.1646 4.17734ZM10.7233 5.35184C10.6548 5.76851 10.669 6.19461 10.7651 6.60579L13.3783 5.99486C13.3623 5.92683 13.36 5.85634 13.3713 5.78742L10.7233 5.35184ZM10.7651 6.60579L13.1823 16.9449L15.7955 16.334L13.3783 5.99486L10.7651 6.60579ZM15.0852 13.318C14.8911 12.4876 14.375 11.7683 13.6505 11.3184L12.2348 13.5982C12.3546 13.6726 12.44 13.7916 12.4721 13.929L15.0852 13.318ZM13.6505 11.3184C12.926 10.8685 12.0525 10.7248 11.2221 10.9189L11.833 13.5321C11.9704 13.5 12.1149 13.5237 12.2348 13.5982L13.6505 11.3184ZM11.2221 10.9189C10.3917 11.1131 9.67236 11.6292 9.22245 12.3537L11.5022 13.7694C11.5766 13.6496 11.6956 13.5642 11.833 13.5321L11.2221 10.9189ZM9.22245 12.3537C8.77253 13.0781 8.62884 13.9517 8.82299 14.7821L11.4361 14.1712C11.404 14.0338 11.4278 13.8893 11.5022 13.7694L9.22245 12.3537ZM8.82348 14.7842L9.53369 17.8002L12.1459 17.1851L11.4356 14.1691L8.82348 14.7842ZM12.0049 16.6039C11.8107 15.7735 11.2947 15.0542 10.5702 14.6043L9.1544 16.884C9.27425 16.9585 9.35962 17.0775 9.39174 17.2148L12.0049 16.6039ZM10.5702 14.6043C9.84569 14.1544 8.97215 14.0107 8.14173 14.2048L8.75266 16.818C8.89004 16.7858 9.03455 16.8096 9.1544 16.884L10.5702 14.6043ZM8.14173 14.2048C7.3113 14.399 6.59201 14.915 6.14209 15.6395L8.42186 17.0553C8.49629 16.9355 8.61529 16.8501 8.75266 16.818L8.14173 14.2048ZM6.14209 15.6395C5.69218 16.364 5.54848 17.2375 5.74263 18.068L8.35578 17.457C8.32366 17.3197 8.34743 17.1752 8.42186 17.0553L6.14209 15.6395ZM5.7429 18.0691L7.02187 23.5178L9.63448 22.9046L8.35551 17.4559L5.7429 18.0691ZM7.0216 23.5167C7.55515 25.7988 8.9734 27.7755 10.9644 29.012L12.3802 26.7322C10.9938 25.8712 10.0063 24.4948 9.63475 22.9058L7.0216 23.5167ZM10.9644 29.012C12.9554 30.2484 15.356 30.6433 17.6381 30.1097L17.0272 27.4966C15.4381 27.8681 13.7665 27.5931 12.3802 26.7322L10.9644 29.012ZM17.6381 30.1097L20.0709 29.541L19.4599 26.9278L17.0272 27.4966L17.6381 30.1097ZM19.46 26.9278L19.2069 26.987L19.8179 29.6001L20.0709 29.541L19.46 26.9278ZM19.8177 29.6002C21.2428 29.2673 22.5629 28.5856 23.6594 27.6165L21.8823 25.6056C21.1187 26.2805 20.1995 26.7551 19.2072 26.9869L19.8177 29.6002ZM23.6594 27.6165C24.7011 26.6958 25.3531 25.9179 25.935 24.5504L23.4657 23.4996C23.0756 24.4164 22.7007 24.8823 21.8823 25.6056L23.6594 27.6165ZM25.935 24.5504C26.3615 23.5481 26.6357 22.1204 26.3619 20.8539L23.7389 21.4211C23.865 22.0046 23.7392 22.8569 23.4657 23.4996L25.935 24.5504ZM26.3619 20.8539C25.9652 19.0192 24.5756 17.0209 22.2255 16.8854L22.0711 19.5646C22.7573 19.6041 23.4843 20.2439 23.7389 21.4211L26.3619 20.8539ZM20.5798 20.7313C20.1912 20.7804 19.79 20.8789 19.4554 20.9634C19.0933 21.0549 18.7902 21.135 18.491 21.1925C17.8324 21.3192 17.6459 21.2347 17.615 21.2138L16.1107 23.4362C17.1048 24.1091 18.2671 23.9684 18.9979 23.8279C19.3935 23.7518 19.7952 23.6455 20.1127 23.5653C20.4578 23.4781 20.711 23.4196 20.9161 23.3937L20.5798 20.7313ZM17.615 21.2138C17.4878 21.1277 17.4211 21.0121 17.4017 20.9129C17.3861 20.833 17.3879 20.7052 17.5205 20.5298L15.3802 18.911C14.1598 20.5245 14.7238 22.4974 16.1107 23.4362L17.615 21.2138ZM17.5205 20.5298C17.5194 20.5314 17.6248 20.415 17.9808 20.2528C18.3078 20.1037 18.7379 19.9647 19.2334 19.8498C20.2335 19.6178 21.3313 19.5219 22.0711 19.5646L22.2255 16.8854C21.1909 16.8258 19.8347 16.9554 18.627 17.2356C18.0185 17.3767 17.4062 17.5655 16.8679 17.8108C16.3589 18.0428 15.7763 18.3872 15.3802 18.911L17.5205 20.5298ZM9.56043 17.8972C9.81759 18.7103 10.3872 19.388 11.144 19.7811L12.3811 17.3997C12.2559 17.3346 12.1617 17.2225 12.1191 17.088L9.56043 17.8972ZM11.144 19.7811C11.9008 20.1743 12.7828 20.2506 13.5959 19.9935L12.7867 17.4348C12.6522 17.4773 12.5063 17.4647 12.3811 17.3997L11.144 19.7811ZM13.5959 19.9935C14.4091 19.7363 15.0867 19.1667 15.4799 18.4099L13.0984 17.1728C13.0333 17.298 12.9212 17.3922 12.7867 17.4348L13.5959 19.9935ZM15.4799 18.4099C15.906 17.5894 15.8885 16.7206 15.7045 15.9448L13.0933 16.564C13.1861 16.9557 13.1304 17.1112 13.0984 17.1728L15.4799 18.4099ZM5.98735 19.0273C6.24452 19.8404 6.81416 20.5181 7.57097 20.9112L8.80803 18.5297C8.68283 18.4647 8.5886 18.3526 8.54605 18.218L5.98735 19.0273ZM7.57097 20.9112C8.32777 21.3043 9.20975 21.3807 10.0229 21.1235L9.21364 18.5648C9.07913 18.6074 8.93322 18.5947 8.80803 18.5297L7.57097 20.9112ZM10.0229 21.1235C10.836 20.8664 11.5137 20.2967 11.9068 19.5399L9.5253 18.3028C9.46026 18.428 9.34816 18.5223 9.21364 18.5648L10.0229 21.1235ZM11.9068 19.5399C12.2999 18.7831 12.3763 17.9011 12.1191 17.088L9.56043 17.8972C9.60297 18.0317 9.59033 18.1776 9.5253 18.3028L11.9068 19.5399ZM24.9877 7.37971C25.1365 6.53997 24.9456 5.67553 24.457 4.97655L22.2574 6.51406C22.3383 6.62968 22.3699 6.77268 22.3452 6.91161L24.9877 7.37971ZM24.457 4.97655C23.9683 4.27757 23.2221 3.80132 22.3823 3.65256L21.9142 6.29503C22.0532 6.31964 22.1766 6.39843 22.2574 6.51406L24.457 4.97655ZM22.3823 3.65256C21.5426 3.5038 20.6782 3.69472 19.9792 4.18333L21.5167 6.38284C21.6323 6.30201 21.7753 6.27042 21.9142 6.29503L22.3823 3.65256ZM19.9792 4.18333C19.3886 4.59618 18.957 5.19294 18.7476 5.87462L21.313 6.66259C21.3476 6.54983 21.419 6.4511 21.5167 6.38284L19.9792 4.18333ZM23.4759 18.4198C23.7736 16.3911 24.154 13.6146 24.4595 11.3494C24.6124 10.2159 24.7467 9.20889 24.8428 8.48521C24.8908 8.12336 24.9293 7.83231 24.9558 7.63167C24.9691 7.53135 24.9793 7.45363 24.9863 7.40096C24.9897 7.37462 24.9924 7.35455 24.9941 7.34105C24.995 7.3343 24.9957 7.32919 24.9962 7.32576C24.9964 7.32404 24.9966 7.32275 24.9967 7.32188C24.9967 7.32144 24.9968 7.32112 24.9968 7.32089C24.9968 7.32078 24.9968 7.3207 24.9968 7.32064C24.9968 7.32058 24.9968 7.32055 23.6665 7.14566C22.3361 6.97077 22.3361 6.97079 22.3361 6.97084C22.3361 6.97089 22.3361 6.97097 22.3361 6.97107C22.3361 6.97128 22.336 6.97159 22.336 6.97201C22.3358 6.97285 22.3357 6.97411 22.3355 6.9758C22.335 6.97916 22.3344 6.98421 22.3335 6.9909C22.3317 7.00428 22.3291 7.02422 22.3256 7.05043C22.3187 7.10284 22.3085 7.18028 22.2953 7.28032C22.2689 7.48038 22.2305 7.77079 22.1825 8.13195C22.0866 8.85428 21.9525 9.85945 21.8 10.9907C21.4946 13.255 21.1159 16.0182 20.8207 18.0302L23.4759 18.4198ZM19.454 16.048L21.3463 6.53026L18.7143 6.00695L16.8219 15.5247L19.454 16.048Z" fill="#4498FF"/>
</svg>
