<svg width="32" height="32" viewBox="0 0 32 32" fill="none" xmlns="http://www.w3.org/2000/svg">
<path d="M22.3333 23.6667C23.0406 23.6667 23.7189 23.9476 24.2189 24.4477C24.719 24.9478 25 25.6261 25 26.3333C25 25.6261 25.281 24.9478 25.781 24.4477C26.2811 23.9476 26.9594 23.6667 27.6667 23.6667C26.9594 23.6667 26.2811 23.3857 25.781 22.8856C25.281 22.3855 25 21.7072 25 21C25 21.7072 24.719 22.3855 24.2189 22.8856C23.7189 23.3857 23.0406 23.6667 22.3333 23.6667ZM22.3333 7.66667C23.0406 7.66667 23.7189 7.94762 24.2189 8.44772C24.719 8.94781 25 9.62609 25 10.3333C25 9.62609 25.281 8.94781 25.781 8.44772C26.2811 7.94762 26.9594 7.66667 27.6667 7.66667C26.9594 7.66667 26.2811 7.38572 25.781 6.88562C25.281 6.38552 25 5.70724 25 5C25 5.70724 24.719 6.38552 24.2189 6.88562C23.7189 7.38572 23.0406 7.66667 22.3333 7.66667ZM13 23.6667C13 21.5449 13.8429 19.5101 15.3431 18.0098C16.8434 16.5095 18.8783 15.6667 21 15.6667C18.8783 15.6667 16.8434 14.8238 15.3431 13.3235C13.8429 11.8232 13 9.7884 13 7.66667C13 9.7884 12.1571 11.8232 10.6569 13.3235C9.15656 14.8238 7.12173 15.6667 5 15.6667C7.12173 15.6667 9.15656 16.5095 10.6569 18.0098C12.1571 19.5101 13 21.5449 13 23.6667Z" stroke="#D085FF" stroke-width="2.66667" stroke-linecap="round" stroke-linejoin="round"/>
</svg>
