<svg width="32" height="32" viewBox="0 0 32 32" fill="none" xmlns="http://www.w3.org/2000/svg">
<path d="M8.66667 12.3333C8.66667 13.7478 9.22857 15.1044 10.2288 16.1046C11.229 17.1048 12.5855 17.6667 14 17.6667C15.4145 17.6667 16.771 17.1048 17.7712 16.1046C18.7714 15.1044 19.3333 13.7478 19.3333 12.3333C19.3333 10.9188 18.7714 9.56229 17.7712 8.5621C16.771 7.5619 15.4145 7 14 7C12.5855 7 11.229 7.5619 10.2288 8.5621C9.22857 9.56229 8.66667 10.9188 8.66667 12.3333Z" stroke="#FF5C5E" stroke-width="2.66667" stroke-linecap="round" stroke-linejoin="round"/>
<path d="M7 20.3333C8.12525 21.3107 9.4425 22.0419 10.8671 22.48C12.2918 22.918 13.7923 23.0532 15.2723 22.8768C16.7522 22.7005 18.179 22.2165 19.4608 21.456C20.7426 20.6955 21.8512 19.6753 22.7153 18.4609C23.5794 17.2465 24.1799 15.8647 24.4783 14.4045C24.7766 12.9442 24.7662 11.4376 24.4477 9.9816C24.1292 8.52557 23.5097 7.15227 22.6289 5.94991C21.7481 4.74755 20.6255 3.74273 19.3333 3" stroke="#FF5C5E" stroke-width="2.66667" stroke-linecap="round" stroke-linejoin="round"/>
<path d="M14 23V28.3333" stroke="#FF5C5E" stroke-width="2.66667" stroke-linecap="round" stroke-linejoin="round"/>
<path d="M8.66667 28.3333H19.3333" stroke="#FF5C5E" stroke-width="2.66667" stroke-linecap="round" stroke-linejoin="round"/>
</svg>
