<svg width="32" height="32" viewBox="0 0 32 32" fill="none" xmlns="http://www.w3.org/2000/svg">
<path d="M12.1435 9.56588C11.8 9.21022 11.6119 8.73269 11.6205 8.23834C11.6291 7.74398 11.8338 7.2733 12.1894 6.92983C12.5451 6.58637 13.0226 6.39825 13.517 6.40687C14.0113 6.41549 14.482 6.62014 14.8255 6.97579L21.3007 13.6808L21.3457 11.0975C21.355 10.5803 21.5369 10.0811 21.8624 9.67909C22.1879 9.27709 22.6384 8.99538 23.1423 8.8787C23.6153 8.76902 24.1124 8.84817 24.5279 9.09934C24.9434 9.3505 25.2445 9.75386 25.3672 10.2236C26.571 14.8318 27.2402 17.4839 27.3749 18.1815C27.4032 18.3272 27.4311 18.473 27.4586 18.6189C27.6865 19.8326 27.6094 21.084 27.2342 22.2606C26.859 23.4371 26.1975 24.5021 25.309 25.3599L25.4949 25.1803L23.7069 26.907C22.2843 28.2809 20.3742 29.0333 18.3968 28.9989C16.4194 28.9644 14.5366 28.1458 13.1628 26.7232L5.82418 19.1242C5.48071 18.7685 5.2926 18.291 5.30122 17.7966C5.30984 17.3023 5.51448 16.8316 5.87014 16.4881C6.22579 16.1446 6.70332 15.9565 7.19768 15.9651C7.69203 15.9738 8.16272 16.1784 8.50618 16.5341M12.1435 9.56588L17.7553 15.3769M12.1435 9.56588L10.4167 7.77787C10.2467 7.60177 10.0436 7.46089 9.81908 7.36327C9.59456 7.26565 9.35302 7.21322 9.10824 7.20895C8.86346 7.20468 8.62024 7.24867 8.39246 7.3384C8.16468 7.42813 7.9568 7.56184 7.7807 7.73191C7.6046 7.90198 7.46372 8.10507 7.3661 8.32958C7.26849 8.55409 7.21605 8.79564 7.21178 9.04042C7.20751 9.28519 7.2515 9.52842 7.34123 9.7562C7.43096 9.98398 7.56468 10.1919 7.73474 10.368L15.0733 17.967M9.46147 12.156C9.118 11.8003 8.64732 11.5957 8.15296 11.5871C7.65861 11.5784 7.18108 11.7666 6.82542 12.11C6.46977 12.4535 6.26512 12.9242 6.2565 13.4185C6.24788 13.9129 6.436 14.3904 6.77946 14.7461L12.3913 20.5571" stroke="#FF6348" stroke-width="2.67" stroke-linecap="round" stroke-linejoin="round"/>
<path d="M16.7284 4.06647C18.5463 3.70112 20.3162 4.87863 20.6815 6.69649M7.44544 25.6231C5.54258 25.6231 4 24.0806 4 22.1777" stroke="#FF6348" stroke-width="1.96882" stroke-linecap="round"/>
</svg>
