<svg width="32" height="32" viewBox="0 0 32 32" fill="none" xmlns="http://www.w3.org/2000/svg">
<path fill-rule="evenodd" clip-rule="evenodd" d="M5.6 6.9C5.6 6.18797 6.18797 5.6 6.9 5.6H19.9C20.1439 5.6 20.2458 5.65549 20.3102 5.70224C20.4028 5.76942 20.5351 5.9104 20.7139 6.23181C21.0628 6.85928 21.8543 7.08508 22.4818 6.73614C23.1093 6.38721 23.3351 5.59567 22.9861 4.96819C22.7203 4.4901 22.3651 3.98108 21.8376 3.59814C21.2819 3.19476 20.6311 3 19.9 3H6.9C4.75203 3 3 4.75203 3 6.9V19.9L3 19.9031C3.00166 20.5909 3.18486 21.266 3.53108 21.8603C3.8773 22.4545 4.37428 22.9468 4.97176 23.2875C5.5955 23.643 6.38939 23.4257 6.74497 22.8019C7.10055 22.1782 6.88317 21.3843 6.25944 21.0287C6.05961 20.9148 5.8934 20.7502 5.77761 20.5514C5.66204 20.353 5.60078 20.1277 5.6 19.8982V6.9ZM11.4347 11.4347C11.8411 11.0283 12.3923 10.8 12.9671 10.8H24.2329C24.5175 10.8 24.7993 10.8561 25.0622 10.965C25.3251 11.0739 25.564 11.2335 25.7653 11.4347C25.9665 11.636 26.1261 11.8749 26.235 12.1378C26.3439 12.4007 26.4 12.6825 26.4 12.9671V24.2329C26.4 24.5175 26.3439 24.7993 26.235 25.0622C26.1261 25.3251 25.9665 25.564 25.7653 25.7653C25.564 25.9665 25.3251 26.1261 25.0622 26.235C24.7993 26.3439 24.5175 26.4 24.2329 26.4H12.9671C12.6825 26.4 12.4007 26.3439 12.1378 26.235C11.8749 26.1261 11.636 25.9665 11.4347 25.7653C11.2335 25.564 11.0739 25.3251 10.965 25.0622C10.8561 24.7993 10.8 24.5175 10.8 24.2329V12.9671C10.8 12.3923 11.0283 11.8411 11.4347 11.4347ZM12.9671 8.2C11.7028 8.2 10.4903 8.70225 9.59625 9.59625C8.70225 10.4903 8.2 11.7028 8.2 12.9671V24.2329C8.2 24.8589 8.32331 25.4788 8.56287 26.0572C8.80244 26.6356 9.15359 27.1611 9.59625 27.6037C10.0389 28.0464 10.5644 28.3976 11.1428 28.6371C11.7212 28.8767 12.3411 29 12.9671 29H24.2329C24.8589 29 25.4788 28.8767 26.0572 28.6371C26.6356 28.3976 27.1611 28.0464 27.6037 27.6037C28.0464 27.1611 28.3976 26.6356 28.6371 26.0572C28.8767 25.4788 29 24.8589 29 24.2329V12.9671C29 12.3411 28.8767 11.7212 28.6371 11.1428C28.3976 10.5644 28.0464 10.0389 27.6037 9.59625C27.1611 9.15359 26.6356 8.80244 26.0572 8.56287C25.4788 8.32331 24.8589 8.2 24.2329 8.2H12.9671Z" fill="#3B3B3B"/>
</svg>
