<svg width="32" height="32" viewBox="0 0 32 32" fill="none" xmlns="http://www.w3.org/2000/svg">
<path d="M9 28L14.3333 12M17 12L18.9733 17.9187M20.2387 21.7147L22.3333 28" stroke="#FFC906" stroke-width="2.66667" stroke-linecap="round" stroke-linejoin="round"/>
<path d="M13 9.33334C13 10.0406 13.281 10.7189 13.781 11.219C14.2811 11.7191 14.9594 12 15.6667 12C16.3739 12 17.0522 11.7191 17.5523 11.219C18.0524 10.7189 18.3333 10.0406 18.3333 9.33334C18.3333 8.62609 18.0524 7.94782 17.5523 7.44772C17.0522 6.94762 16.3739 6.66667 15.6667 6.66667C14.9594 6.66667 14.2811 6.94762 13.781 7.44772C13.281 7.94782 13 8.62609 13 9.33334Z" stroke="#FFC906" stroke-width="2.66667" stroke-linecap="round" stroke-linejoin="round"/>
<path d="M5 16C7.03467 19.94 11.1173 22.6667 15.6667 22.6667C20.2133 22.6667 24.2973 19.936 26.3333 16" stroke="#FFC906" stroke-width="2.66667" stroke-linecap="round" stroke-linejoin="round"/>
<path d="M15.6667 6.66667V4" stroke="#FFC906" stroke-width="2.66667" stroke-linecap="round" stroke-linejoin="round"/>
</svg>
