<svg width="24" height="24" viewBox="0 0 24 24" fill="none" xmlns="http://www.w3.org/2000/svg">
<path d="M20 15.0005C20 14.7353 19.8946 14.48 19.707 14.2925C19.5195 14.1051 19.2651 14.0005 19 14.0005H5C4.7349 14.0005 4.48048 14.1051 4.29297 14.2925C4.10543 14.48 4 14.7353 4 15.0005V19.0005C4.00013 19.2655 4.10555 19.5201 4.29297 19.7075C4.48048 19.8949 4.7349 20.0005 5 20.0005H19C19.2651 20.0005 19.5195 19.8949 19.707 19.7075C19.8945 19.5201 19.9999 19.2655 20 19.0005V15.0005ZM12 17.0103V17.0005C12 16.4482 12.4477 16.0005 13 16.0005C13.5523 16.0005 14 16.4482 14 17.0005V17.0103C13.9999 17.5624 13.5522 18.0103 13 18.0103C12.4478 18.0103 12.0001 17.5624 12 17.0103ZM16 17.0103V17.0005C16 16.4482 16.4477 16.0005 17 16.0005C17.5523 16.0005 18 16.4482 18 17.0005V17.0103C17.9999 17.5624 17.5522 18.0103 17 18.0103C16.4478 18.0103 16.0001 17.5624 16 17.0103ZM15.2969 6.09131C15.9883 6.13244 16.665 6.31604 17.2832 6.6333C17.9897 6.99591 18.5996 7.52229 19.0625 8.16748C19.3843 8.6162 19.2817 9.24107 18.833 9.56299C18.3844 9.8848 17.7595 9.782 17.4375 9.3335C17.1597 8.94638 16.794 8.63016 16.3701 8.4126C15.9994 8.22231 15.5934 8.11215 15.1787 8.0874L15 8.08252C14.5236 8.08252 14.0537 8.19505 13.6299 8.4126C13.206 8.63016 12.8403 8.94638 12.5625 9.3335C12.2405 9.782 11.6156 9.8848 11.167 9.56299C10.7183 9.24107 10.6157 8.6162 10.9375 8.16748C11.4004 7.52229 12.0103 6.99591 12.7168 6.6333C13.4232 6.27075 14.206 6.08252 15 6.08252L15.2969 6.09131ZM15 2.16357C16.4292 2.16357 17.8378 2.50414 19.1094 3.15674C20.3809 3.80938 21.4793 4.75529 22.3125 5.9165C22.6344 6.36517 22.5316 6.99001 22.083 7.31201C21.6343 7.63397 21.0095 7.53125 20.6875 7.08252C20.0394 6.17935 19.1852 5.44365 18.1963 4.93604C17.2073 4.42843 16.1117 4.16357 15 4.16357C13.8883 4.16357 12.7927 4.42843 11.8037 4.93604C10.8148 5.44365 9.96057 6.17935 9.3125 7.08252C8.99054 7.53125 8.36572 7.63397 7.91699 7.31201C7.46844 6.99001 7.36559 6.36517 7.6875 5.9165C8.52073 4.75529 9.61911 3.80938 10.8906 3.15674C12.1622 2.50414 13.5708 2.16357 15 2.16357ZM22 19.0005C21.9999 19.796 21.6836 20.5591 21.1211 21.1216C20.5585 21.684 19.7955 22.0005 19 22.0005H5C4.20447 22.0005 3.44149 21.684 2.87891 21.1216C2.31641 20.5591 2.00013 19.796 2 19.0005V15.0005C2 14.2048 2.3163 13.441 2.87891 12.8784C3.44149 12.316 4.20447 12.0005 5 12.0005H14V11.0005C14 10.4482 14.4477 10.0005 15 10.0005C15.5523 10.0005 16 10.4482 16 11.0005V12.0005H19C19.7955 12.0005 20.5585 12.316 21.1211 12.8784C21.6837 13.441 22 14.2048 22 15.0005V19.0005Z" fill="#929292"/>
</svg>
