<svg width="42" height="34" viewBox="0 0 42 34" fill="none" xmlns="http://www.w3.org/2000/svg">
<path d="M6.7194 6.66667V26.6667H26.7194V6.66667H6.7194ZM21.7194 10C22.6399 10 23.3861 10.7462 23.3861 11.6667V21.6667C23.3861 22.5871 22.6399 23.3333 21.7194 23.3333H11.7194C10.7989 23.3333 10.0527 22.5871 10.0527 21.6667V11.6667C10.0527 10.7462 10.7989 10 11.7194 10H21.7194ZM13.3861 20H20.0527V13.3333H13.3861V20ZM30.0527 11.6667H31.7194C32.6399 11.6667 33.3861 12.4129 33.3861 13.3333C33.3861 14.2538 32.6399 15 31.7194 15H30.0527V18.3333H31.7194C32.6399 18.3333 33.3861 19.0795 33.3861 20C33.3861 20.9205 32.6399 21.6667 31.7194 21.6667H30.0527V26.6667C30.0527 27.5507 29.7013 28.3983 29.0762 29.0234C28.451 29.6486 27.6035 30 26.7194 30H21.7194V31.6667C21.7194 32.5871 20.9732 33.3333 20.0527 33.3333C19.1323 33.3333 18.3861 32.5871 18.3861 31.6667V30H15.0527V31.6667C15.0527 32.5871 14.3065 33.3333 13.3861 33.3333C12.4656 33.3333 11.7194 32.5871 11.7194 31.6667V30H6.7194C5.83535 30 4.98775 29.6486 4.36263 29.0234C3.73751 28.3983 3.38607 27.5507 3.38607 26.6667V21.6667H1.7194C0.798926 21.6667 0.0527344 20.9205 0.0527344 20C0.0527344 19.0795 0.798926 18.3333 1.7194 18.3333H3.38607V15H1.7194C0.798926 15 0.0527344 14.2538 0.0527344 13.3333C0.0527344 12.4129 0.798926 11.6667 1.7194 11.6667H3.38607V6.66667C3.38607 5.78261 3.73751 4.93502 4.36263 4.3099C4.98775 3.68478 5.83534 3.33333 6.7194 3.33333H11.7194V1.66667C11.7194 0.746192 12.4656 0 13.3861 0C14.3065 0 15.0527 0.746192 15.0527 1.66667V3.33333H18.3861V1.66667C18.3861 0.746192 19.1323 0 20.0527 0C20.9732 0 21.7194 0.746192 21.7194 1.66667V3.33333H26.7194C27.6035 3.33333 28.451 3.68477 29.0762 4.3099C29.7013 4.93502 30.0527 5.78261 30.0527 6.66667V11.6667Z" fill="#3264E5"/>
</svg>
