<svg width="32" height="34" viewBox="0 0 32 34" fill="none" xmlns="http://www.w3.org/2000/svg">
<path d="M20.6133 31.6667V28.3333C20.6133 27.0073 20.0861 25.7359 19.1484 24.7982C18.3281 23.9778 17.2525 23.4715 16.1081 23.3577L15.6133 23.3333H8.94661C7.62053 23.3333 6.34914 23.8605 5.41146 24.7982C4.47378 25.7359 3.94661 27.0073 3.94661 28.3333V31.6667C3.94661 32.5871 3.20042 33.3333 2.27995 33.3333C1.35947 33.3333 0.613281 32.5871 0.613281 31.6667V28.3333C0.613281 26.1232 1.49188 24.0042 3.05469 22.4414C4.61749 20.8786 6.73648 20 8.94661 20H15.6133C17.8234 20 19.9424 20.8786 21.5052 22.4414C23.068 24.0042 23.9466 26.1232 23.9466 28.3333V31.6667C23.9466 32.5871 23.2004 33.3333 22.2799 33.3333C21.3595 33.3333 20.6133 32.5871 20.6133 31.6667ZM17.2555 7.83854C17.1418 6.69415 16.6354 5.61851 15.8151 4.79818C14.8774 3.8605 13.606 3.33333 12.2799 3.33333C10.9539 3.33333 9.68247 3.8605 8.74479 4.79818C7.80711 5.73586 7.27995 7.00725 7.27995 8.33333L7.30436 8.82812C7.41813 9.97252 7.92446 11.0482 8.74479 11.8685C9.68247 12.8062 10.9539 13.3333 12.2799 13.3333L12.7747 13.3089C13.9191 13.1952 14.9948 12.6888 15.8151 11.8685C16.7528 10.9308 17.2799 9.65942 17.2799 8.33333L17.2555 7.83854ZM20.6035 8.74674C20.5013 10.8064 19.637 12.7602 18.1719 14.2253C16.7068 15.6903 14.753 16.5547 12.6934 16.6569L12.2799 16.6667C10.0698 16.6667 7.95082 15.7881 6.38802 14.2253C4.92293 12.7602 4.0586 10.8064 3.95638 8.74674L3.94661 8.33333C3.94661 6.1232 4.82522 4.00421 6.38802 2.44141C7.95082 0.878603 10.0698 0 12.2799 0C14.4901 0 16.6091 0.878603 18.1719 2.44141C19.7347 4.00421 20.6133 6.1232 20.6133 8.33333L20.6035 8.74674Z" fill="#3264E5"/>
</svg>
