<svg width="24" height="24" viewBox="0 0 24 24" fill="none" xmlns="http://www.w3.org/2000/svg">
<path d="M17 21V19C17 18.2044 16.6837 17.4415 16.1211 16.8789C15.6289 16.3867 14.9835 16.0829 14.2969 16.0146L14 16H10C9.20435 16 8.44152 16.3163 7.87891 16.8789C7.3163 17.4415 7 18.2044 7 19V21C7 21.5523 6.55228 22 6 22C5.44772 22 5 21.5523 5 21V19C5 17.6739 5.52716 16.4025 6.46484 15.4648C7.40253 14.5272 8.67392 14 10 14H14C15.3261 14 16.5975 14.5272 17.5352 15.4648C18.4728 16.4025 19 17.6739 19 19V21C19 21.5523 18.5523 22 18 22C17.4477 22 17 21.5523 17 21ZM14.9854 6.70312C14.9171 6.01649 14.6133 5.3711 14.1211 4.87891C13.5585 4.3163 12.7956 4 12 4C11.2044 4 10.4415 4.3163 9.87891 4.87891C9.3163 5.44152 9 6.20435 9 7L9.01465 7.29688C9.08291 7.98351 9.38671 8.6289 9.87891 9.12109C10.4415 9.6837 11.2044 10 12 10L12.2969 9.98535C12.9835 9.91709 13.6289 9.61329 14.1211 9.12109C14.6837 8.55848 15 7.79565 15 7L14.9854 6.70312ZM16.9941 7.24805C16.9328 8.48382 16.4142 9.6561 15.5352 10.5352C14.6561 11.4142 13.4838 11.9328 12.248 11.9941L12 12C10.6739 12 9.40253 11.4728 8.46484 10.5352C7.58579 9.6561 7.06719 8.48382 7.00586 7.24805L7 7C7 5.67392 7.52716 4.40253 8.46484 3.46484C9.40253 2.52716 10.6739 2 12 2C13.3261 2 14.5975 2.52716 15.5352 3.46484C16.4728 4.40253 17 5.67392 17 7L16.9941 7.24805Z" fill="#929292"/>
</svg>
