<svg width="42" height="32" viewBox="0 0 42 32" fill="none" xmlns="http://www.w3.org/2000/svg">
<path d="M25.9014 18.8216C26.5522 18.1707 27.6073 18.1707 28.2581 18.8216L33.2581 23.8216C33.909 24.4725 33.909 25.5275 33.2581 26.1784L28.2581 31.1784C27.6073 31.8293 26.5522 31.8293 25.9014 31.1784C25.2505 30.5275 25.2505 29.4725 25.9014 28.8216L28.0563 26.6667H22.0798C21.1593 26.6667 20.4131 25.9205 20.4131 25C20.4131 24.0795 21.1593 23.3333 22.0798 23.3333H28.0563L25.9014 21.1784C25.2505 20.5275 25.2505 19.4725 25.9014 18.8216ZM30.4131 17.5V8.11361L18.0042 16.3867C17.4444 16.7599 16.7151 16.7599 16.1553 16.3867L3.74642 8.11361V21.6667C3.74642 22.1087 3.92214 22.5325 4.2347 22.8451C4.54726 23.1576 4.97106 23.3333 5.41309 23.3333H17.0798C18.0002 23.3333 18.7464 24.0795 18.7464 25C18.7464 25.9205 18.0002 26.6667 17.0798 26.6667H5.41309C4.087 26.6667 2.81561 26.1395 1.87793 25.2018C0.940248 24.2641 0.413086 22.9928 0.413086 21.6667V5C0.413086 3.67392 0.940248 2.40253 1.87793 1.46484C2.81561 0.527162 4.087 0 5.41309 0H28.7464C30.0725 0 31.3439 0.527162 32.2816 1.46484C33.2193 2.40253 33.7464 3.67392 33.7464 5V17.5C33.7464 18.4205 33.0002 19.1667 32.0798 19.1667C31.1593 19.1667 30.4131 18.4205 30.4131 17.5ZM5.41309 3.33333C4.97106 3.33333 4.54726 3.50905 4.2347 3.82161C4.1126 3.94372 4.01159 4.08286 3.93359 4.2334L17.0798 12.9964L30.2243 4.2334C30.1463 4.08312 30.0467 3.94354 29.9248 3.82161C29.6512 3.54804 29.2925 3.37929 28.9108 3.34147L28.7464 3.33333H5.41309Z" fill="#3264E5"/>
</svg>
