<svg width="24" height="24" viewBox="0 0 24 24" fill="none" xmlns="http://www.w3.org/2000/svg">
<path d="M6 6V18H18V6H6ZM15 8C15.5523 8 16 8.44772 16 9V15C16 15.5523 15.5523 16 15 16H9C8.44772 16 8 15.5523 8 15V9C8 8.44772 8.44772 8 9 8H15ZM10 14H14V10H10V14ZM20 9H21C21.5523 9 22 9.44772 22 10C22 10.5523 21.5523 11 21 11H20V13H21C21.5523 13 22 13.4477 22 14C22 14.5523 21.5523 15 21 15H20V18C20 18.5304 19.7891 19.039 19.4141 19.4141C19.039 19.7891 18.5304 20 18 20H15V21C15 21.5523 14.5523 22 14 22C13.4477 22 13 21.5523 13 21V20H11V21C11 21.5523 10.5523 22 10 22C9.44772 22 9 21.5523 9 21V20H6C5.46957 20 4.96101 19.7891 4.58594 19.4141C4.21086 19.039 4 18.5304 4 18V15H3C2.44772 15 2 14.5523 2 14C2 13.4477 2.44772 13 3 13H4V11H3C2.44772 11 2 10.5523 2 10C2 9.44772 2.44772 9 3 9H4V6C4 5.46957 4.21087 4.96101 4.58594 4.58594C4.96101 4.21087 5.46957 4 6 4H9V3C9 2.44772 9.44772 2 10 2C10.5523 2 11 2.44772 11 3V4H13V3C13 2.44772 13.4477 2 14 2C14.5523 2 15 2.44772 15 3V4H18C18.5304 4 19.039 4.21086 19.4141 4.58594C19.7891 4.96101 20 5.46957 20 6V9Z" fill="#929292"/>
</svg>
