<svg width="43" height="34" viewBox="0 0 43 34" fill="none" xmlns="http://www.w3.org/2000/svg">
<path d="M30.5732 21.3949C30.5732 20.9528 30.3975 20.5274 30.085 20.2148C29.7724 19.9025 29.3484 19.7282 28.9066 19.7282H5.57324C5.13141 19.7282 4.70738 19.9025 4.39486 20.2148C4.0823 20.5274 3.90658 20.9528 3.90658 21.3949V28.0615C3.90679 28.5033 4.08249 28.9275 4.39486 29.2399C4.70738 29.5522 5.13141 29.7282 5.57324 29.7282H28.9066C29.3484 29.7282 29.7724 29.5522 30.085 29.2399C30.3973 28.9275 30.573 28.5033 30.5732 28.0615V21.3949ZM17.2399 24.7445V24.7282C17.2399 23.8077 17.9861 23.0615 18.9066 23.0615C19.8271 23.0615 20.5732 23.8077 20.5732 24.7282V24.7445C20.573 25.6647 19.8269 26.4111 18.9066 26.4111C17.9862 26.4111 17.2401 25.6647 17.2399 24.7445ZM23.9066 24.7445V24.7282C23.9066 23.8077 24.6528 23.0615 25.5732 23.0615C26.4937 23.0615 27.2399 23.8077 27.2399 24.7282V24.7445C27.2397 25.6647 26.4936 26.4111 25.5732 26.4111C24.6529 26.4111 23.9068 25.6647 23.9066 24.7445ZM22.7347 6.54622C23.8871 6.61477 25.015 6.92078 26.0452 7.44954C27.2227 8.05389 28.2392 8.93119 29.0107 10.0065C29.5471 10.7544 29.376 11.7958 28.6283 12.3324C27.8805 12.8687 26.839 12.6974 26.3024 11.9499C25.8395 11.3047 25.2299 10.7776 24.5234 10.415C23.9055 10.0979 23.2289 9.91429 22.5378 9.87305L22.2399 9.86491C21.4459 9.86491 20.6628 10.0525 19.9564 10.415C19.2499 10.7776 18.6403 11.3047 18.1774 11.9499C17.6408 12.6974 16.5993 12.8687 15.8516 12.3324C15.1038 11.7958 14.9327 10.7544 15.4691 10.0065C16.2406 8.93119 17.2571 8.05389 18.4346 7.44954C19.6119 6.8453 20.9166 6.53158 22.2399 6.53158L22.7347 6.54622ZM22.2399 0C24.622 0 26.9696 0.567609 29.0889 1.65527C31.2081 2.74301 33.0387 4.31952 34.4274 6.25488C34.9639 7.00265 34.7925 8.04406 34.0449 8.58073C33.297 9.11733 32.2557 8.94613 31.7191 8.19824C30.639 6.69296 29.2153 5.46679 27.5671 4.62077C25.9187 3.77476 24.0927 3.33333 22.2399 3.33333C20.3871 3.33333 18.5611 3.77476 16.9128 4.62077C15.2645 5.46679 13.8409 6.69296 12.7607 8.19824C12.2241 8.94613 11.1828 9.11733 10.4349 8.58073C9.6873 8.04406 9.51589 7.00265 10.0524 6.25488C11.4411 4.31952 13.2718 2.74301 15.391 1.65527C17.5102 0.567609 19.8578 0 22.2399 0ZM33.9066 28.0615C33.9064 29.3873 33.3792 30.6592 32.4417 31.5967C31.5041 32.5341 30.2325 33.0615 28.9066 33.0615H5.57324C4.24735 33.0615 2.97573 32.5341 2.03809 31.5967C1.1006 30.6592 0.573458 29.3873 0.573242 28.0615V21.3949C0.573242 20.0688 1.1004 18.7958 2.03809 17.8581C2.97573 16.9206 4.24735 16.3949 5.57324 16.3949H20.5732V14.7282C20.5732 13.8077 21.3194 13.0615 22.2399 13.0615C23.1604 13.0615 23.9066 13.8077 23.9066 14.7282V16.3949H28.9066C30.2325 16.3949 31.5041 16.9206 32.4417 17.8581C33.3794 18.7958 33.9066 20.0688 33.9066 21.3949V28.0615Z" fill="#3264E5"/>
</svg>
