<svg width="24" height="24" viewBox="0 0 24 24" fill="none" xmlns="http://www.w3.org/2000/svg">
<path d="M17.293 14.293C17.6835 13.9024 18.3165 13.9024 18.707 14.293L21.707 17.293C22.0976 17.6835 22.0976 18.3165 21.707 18.707L18.707 21.707C18.3165 22.0976 17.6835 22.0976 17.293 21.707C16.9024 21.3165 16.9024 20.6835 17.293 20.293L18.5859 19H15C14.4477 19 14 18.5523 14 18C14 17.4477 14.4477 17 15 17H18.5859L17.293 15.707C16.9024 15.3165 16.9024 14.6835 17.293 14.293ZM20 13.5V7.86816L12.5547 12.832C12.2188 13.056 11.7812 13.056 11.4453 12.832L4 7.86816V16C4 16.2652 4.10543 16.5195 4.29297 16.707C4.48051 16.8946 4.73478 17 5 17H12C12.5523 17 13 17.4477 13 18C13 18.5523 12.5523 19 12 19H5C4.20435 19 3.44152 18.6837 2.87891 18.1211C2.3163 17.5585 2 16.7956 2 16V6C2 5.20435 2.3163 4.44152 2.87891 3.87891C3.44152 3.3163 4.20435 3 5 3H19C19.7956 3 20.5585 3.3163 21.1211 3.87891C21.6837 4.44152 22 5.20435 22 6V13.5C22 14.0523 21.5523 14.5 21 14.5C20.4477 14.5 20 14.0523 20 13.5ZM5 5C4.73478 5 4.48051 5.10543 4.29297 5.29297C4.21971 5.36623 4.1591 5.44972 4.1123 5.54004L12 10.7979L19.8867 5.54004C19.8399 5.44987 19.7802 5.36612 19.707 5.29297C19.5429 5.12883 19.3276 5.02757 19.0986 5.00488L19 5H5Z" fill="#929292"/>
</svg>
