<svg width="32" height="32" viewBox="0 0 32 32" fill="none" xmlns="http://www.w3.org/2000/svg">
<g clip-path="url(#clip0_50_209)">
<path d="M13.5 10.1667H11.8333C11.3913 10.1667 10.9674 10.3423 10.6548 10.6548C10.3423 10.9674 10.1667 11.3913 10.1667 11.8333V21.8333C10.1667 22.2754 10.3423 22.6993 10.6548 23.0118C10.9674 23.3244 11.3913 23.5 11.8333 23.5H20.1667C20.6087 23.5 21.0326 23.3244 21.3452 23.0118C21.6577 22.6993 21.8333 22.2754 21.8333 21.8333V11.8333C21.8333 11.3913 21.6577 10.9674 21.3452 10.6548C21.0326 10.3423 20.6087 10.1667 20.1667 10.1667H18.5" stroke="#938883" stroke-width="1.66667" stroke-linecap="round" stroke-linejoin="round"/>
<path d="M13.5 10.1667C13.5 9.72465 13.6756 9.30073 13.9882 8.98817C14.3007 8.67561 14.7246 8.50002 15.1667 8.50002H16.8333C17.2754 8.50002 17.6993 8.67561 18.0118 8.98817C18.3244 9.30073 18.5 9.72465 18.5 10.1667C18.5 10.6087 18.3244 11.0326 18.0118 11.3452C17.6993 11.6578 17.2754 11.8333 16.8333 11.8333H15.1667C14.7246 11.8333 14.3007 11.6578 13.9882 11.3452C13.6756 11.0326 13.5 10.6087 13.5 10.1667Z" stroke="#938883" stroke-width="1.66667" stroke-linecap="round" stroke-linejoin="round"/>
</g>
<defs>
<clipPath id="clip0_50_209">
<rect width="20" height="20" fill="white" transform="translate(6 6)"/>
</clipPath>
</defs>
</svg>
