<svg width="40" height="40" viewBox="0 0 40 40" fill="none" xmlns="http://www.w3.org/2000/svg">
<g clip-path="url(#clip0_69_370)">
<path d="M20 5.9375C22.9969 5.9375 25.5 8.04688 26.1094 10.8609C27.7096 10.4279 29.4163 10.6483 30.854 11.4736C32.2918 12.2989 33.3428 13.6615 33.7758 15.2617C34.2089 16.8619 33.9885 18.5686 33.1632 20.0064C32.3379 21.4441 30.9752 22.4951 29.375 22.9281V34.0625H10.625V22.9281C9.83268 22.7135 9.09037 22.3449 8.44048 21.8434C7.79058 21.3419 7.24583 20.7173 6.83732 20.0052C6.42882 19.2932 6.16456 18.5077 6.05963 17.6935C5.95471 16.8794 6.01117 16.0525 6.2258 15.2602C6.44043 14.4678 6.80902 13.7255 7.31053 13.0756C7.81204 12.4257 8.43664 11.881 9.14868 11.4725C9.86072 11.064 10.6462 10.7997 11.4604 10.6948C12.2746 10.5898 13.1014 10.6463 13.8938 10.8609C14.1966 9.46651 14.9675 8.2177 16.0784 7.32205C17.1892 6.42639 18.5731 5.93781 20 5.9375Z" stroke="#5ECF94" stroke-width="3.75" stroke-linecap="round" stroke-linejoin="round"/>
<path d="M10.8766 27.8266L29.375 27.8125" stroke="#5ECF94" stroke-width="3.75" stroke-linecap="round" stroke-linejoin="round"/>
</g>
<defs>
<clipPath id="clip0_69_370">
<rect width="37.5" height="37.5" fill="white" transform="translate(1.25003 1.25)"/>
</clipPath>
</defs>
</svg>
