<svg width="40" height="40" viewBox="0 0 40 40" fill="none" xmlns="http://www.w3.org/2000/svg">
<g clip-path="url(#clip0_30_150)">
<path d="M4.375 29.375C4.375 30.6182 4.86886 31.8105 5.74794 32.6896C6.62701 33.5686 7.8193 34.0625 9.0625 34.0625C10.3057 34.0625 11.498 33.5686 12.3771 32.6896C13.2561 31.8105 13.75 30.6182 13.75 29.375C13.75 28.1318 13.2561 26.9395 12.3771 26.0604C11.498 25.1814 10.3057 24.6875 9.0625 24.6875C7.8193 24.6875 6.62701 25.1814 5.74794 26.0604C4.86886 26.9395 4.375 28.1318 4.375 29.375Z" stroke="#E4CE59" stroke-width="3.75" stroke-linecap="round" stroke-linejoin="round"/>
<path d="M26.25 29.375C26.25 30.6182 26.7439 31.8105 27.6229 32.6896C28.502 33.5686 29.6943 34.0625 30.9375 34.0625C32.1807 34.0625 33.373 33.5686 34.2521 32.6896C35.1311 31.8105 35.625 30.6182 35.625 29.375C35.625 28.1318 35.1311 26.9395 34.2521 26.0604C33.373 25.1814 32.1807 24.6875 30.9375 24.6875C29.6943 24.6875 28.502 25.1814 27.6229 26.0604C26.7439 26.9395 26.25 28.1318 26.25 29.375Z" stroke="#E4CE59" stroke-width="3.75" stroke-linecap="round" stroke-linejoin="round"/>
<path d="M20 30.9375V24.6875L15.3125 20L23.125 13.75L26.25 18.4375H30.9375" stroke="#E4CE59" stroke-width="3.75" stroke-linecap="round" stroke-linejoin="round"/>
<path d="M26.25 9.0625C26.25 9.4769 26.4146 9.87433 26.7076 10.1674C27.0007 10.4604 27.3981 10.625 27.8125 10.625C28.2269 10.625 28.6243 10.4604 28.9174 10.1674C29.2104 9.87433 29.375 9.4769 29.375 9.0625C29.375 8.6481 29.2104 8.25067 28.9174 7.95765C28.6243 7.66462 28.2269 7.5 27.8125 7.5C27.3981 7.5 27.0007 7.66462 26.7076 7.95765C26.4146 8.25067 26.25 8.6481 26.25 9.0625Z" fill="#E4CE59" stroke="#E4CE59" stroke-width="3.75" stroke-linecap="round" stroke-linejoin="round"/>
</g>
<defs>
<clipPath id="clip0_30_150">
<rect width="37.5" height="37.5" fill="white" transform="translate(1.25 1.25)"/>
</clipPath>
</defs>
</svg>
