<svg width="40" height="40" viewBox="0 0 40 40" fill="none" xmlns="http://www.w3.org/2000/svg">
<g clip-path="url(#clip0_30_185)">
<path d="M5.9375 20C5.9375 21.8467 6.30124 23.6753 7.00794 25.3815C7.71465 27.0876 8.75049 28.6379 10.0563 29.9437C11.3621 31.2495 12.9124 32.2854 14.6185 32.9921C16.3247 33.6988 18.1533 34.0625 20 34.0625C21.8467 34.0625 23.6753 33.6988 25.3815 32.9921C27.0876 32.2854 28.6379 31.2495 29.9437 29.9437C31.2495 28.6379 32.2854 27.0876 32.9921 25.3815C33.6988 23.6753 34.0625 21.8467 34.0625 20C34.0625 18.1533 33.6988 16.3247 32.9921 14.6185C32.2854 12.9124 31.2495 11.3621 29.9437 10.0563C28.6379 8.75049 27.0876 7.71465 25.3815 7.00794C23.6753 6.30124 21.8467 5.9375 20 5.9375C18.1533 5.9375 16.3247 6.30124 14.6185 7.00794C12.9124 7.71465 11.3621 8.75049 10.0563 10.0563C8.75049 11.3621 7.71465 12.9124 7.00794 14.6185C6.30124 16.3247 5.9375 18.1533 5.9375 20Z" stroke="#FF5C5E" stroke-width="3.75" stroke-linecap="round" stroke-linejoin="round"/>
<path d="M10.0781 10.0781L29.9219 29.9219" stroke="#FF5C5E" stroke-width="3.75" stroke-linecap="round" stroke-linejoin="round"/>
<path d="M10.0781 29.9219L29.9219 10.0781" stroke="#FF5C5E" stroke-width="3.75" stroke-linecap="round" stroke-linejoin="round"/>
<path d="M20 5.9375C20 9.66711 21.4816 13.244 24.1188 15.8812C26.756 18.5184 30.3329 20 34.0625 20" stroke="#FF5C5E" stroke-width="3.75" stroke-linecap="round" stroke-linejoin="round"/>
<path d="M5.9375 20C9.66711 20 13.244 21.4816 15.8812 24.1188C18.5184 26.756 20 30.3329 20 34.0625" stroke="#FF5C5E" stroke-width="3.75" stroke-linecap="round" stroke-linejoin="round"/>
</g>
<defs>
<clipPath id="clip0_30_185">
<rect width="37.5" height="37.5" fill="white" transform="translate(1.25 1.25)"/>
</clipPath>
</defs>
</svg>
