<svg width="40" height="40" viewBox="0 0 40 40" fill="none" xmlns="http://www.w3.org/2000/svg">
<g clip-path="url(#clip0_30_143)">
<path d="M20 21.5625L16.875 18.4375" stroke="#7FD4D6" stroke-width="3.75" stroke-linecap="round" stroke-linejoin="round"/>
<path d="M20 20L23.125 16.875" stroke="#7FD4D6" stroke-width="3.75" stroke-linecap="round" stroke-linejoin="round"/>
<path d="M20 34.0625V13.75" stroke="#7FD4D6" stroke-width="3.75" stroke-linecap="round" stroke-linejoin="round"/>
<path d="M16.6 26.25C15.9164 26.21 15.2498 26.0206 14.6472 25.6953C14.0446 25.37 13.5206 24.9166 13.112 24.367C12.7035 23.8174 12.4203 23.185 12.2825 22.5142C12.1446 21.8434 12.1554 21.1506 12.3141 20.4844C11.7476 20.0127 11.3004 19.414 11.0087 18.737C10.7171 18.06 10.5892 17.3238 10.6355 16.5881C10.6817 15.8524 10.9009 15.138 11.2751 14.5029C11.6493 13.8678 12.168 13.3298 12.7891 12.9328C12.2443 11.9651 12.0609 10.8354 12.2713 9.74502C12.4818 8.65464 13.0726 7.67441 13.9384 6.97896C14.8042 6.28352 15.8887 5.91804 16.9988 5.94765C18.109 5.97726 19.1725 6.40003 20 7.14063C20.8277 6.4012 21.8909 5.97943 23.0004 5.9504C24.1098 5.92137 25.1936 6.28695 26.0589 6.98209C26.9241 7.67722 27.5146 8.6568 27.7252 9.74649C27.9359 10.8362 27.7531 11.9653 27.2094 12.9328C27.8306 13.3297 28.3494 13.8675 28.7237 14.5026C29.0981 15.1376 29.3174 15.852 29.3638 16.5877C29.4102 17.3234 29.2825 18.0597 28.9909 18.7367C28.6994 19.4138 28.2523 20.0125 27.6859 20.4844C27.85 21.1731 27.8558 21.8901 27.7031 22.5814C27.5504 23.2727 27.2431 23.9205 26.8042 24.4761C26.3653 25.0316 25.8063 25.4805 25.169 25.7891C24.5318 26.0977 23.833 26.258 23.125 26.2578H16.875L16.6 26.25Z" stroke="#7FD4D6" stroke-width="3.75" stroke-linecap="round" stroke-linejoin="round"/>
</g>
<defs>
<clipPath id="clip0_30_143">
<rect width="37.5" height="37.5" fill="white" transform="translate(1.25 1.25)"/>
</clipPath>
</defs>
</svg>
