<svg width="40" height="40" viewBox="0 0 40 40" fill="none" xmlns="http://www.w3.org/2000/svg">
<g clip-path="url(#clip0_44_166)">
<path d="M9.0625 12.1875H10.625C11.4538 12.1875 12.2487 11.8583 12.8347 11.2722C13.4208 10.6862 13.75 9.8913 13.75 9.0625C13.75 8.6481 13.9146 8.25067 14.2076 7.95765C14.5007 7.66462 14.8981 7.5 15.3125 7.5H24.6875C25.1019 7.5 25.4993 7.66462 25.7924 7.95765C26.0854 8.25067 26.25 8.6481 26.25 9.0625C26.25 9.8913 26.5792 10.6862 27.1653 11.2722C27.7513 11.8583 28.5462 12.1875 29.375 12.1875H30.9375C31.7663 12.1875 32.5612 12.5167 33.1472 13.1028C33.7333 13.6888 34.0625 14.4837 34.0625 15.3125V29.375C34.0625 30.2038 33.7333 30.9987 33.1472 31.5847C32.5612 32.1708 31.7663 32.5 30.9375 32.5H9.0625C8.2337 32.5 7.43884 32.1708 6.85279 31.5847C6.26674 30.9987 5.9375 30.2038 5.9375 29.375V15.3125C5.9375 14.4837 6.26674 13.6888 6.85279 13.1028C7.43884 12.5167 8.2337 12.1875 9.0625 12.1875Z" stroke="#D085FF" stroke-width="3.75" stroke-linecap="round" stroke-linejoin="round"/>
<path d="M15.3125 21.5625C15.3125 22.8057 15.8064 23.998 16.6854 24.8771C17.5645 25.7561 18.7568 26.25 20 26.25C21.2432 26.25 22.4355 25.7561 23.3146 24.8771C24.1936 23.998 24.6875 22.8057 24.6875 21.5625C24.6875 20.3193 24.1936 19.127 23.3146 18.2479C22.4355 17.3689 21.2432 16.875 20 16.875C18.7568 16.875 17.5645 17.3689 16.6854 18.2479C15.8064 19.127 15.3125 20.3193 15.3125 21.5625Z" stroke="#D085FF" stroke-width="3.75" stroke-linecap="round" stroke-linejoin="round"/>
</g>
<defs>
<clipPath id="clip0_44_166">
<rect width="37.5" height="37.5" fill="white" transform="translate(1.25 1.25)"/>
</clipPath>
</defs>
</svg>
