<svg width="40" height="40" viewBox="0 0 40 40" fill="none" xmlns="http://www.w3.org/2000/svg">
<g clip-path="url(#clip0_30_192)">
<path d="M5.93748 27.8125C5.93748 29.0557 6.43135 30.248 7.31042 31.1271C8.1895 32.0061 9.38178 32.5 10.625 32.5C11.8682 32.5 13.0605 32.0061 13.9395 31.1271C14.8186 30.248 15.3125 29.0557 15.3125 27.8125C15.3125 26.5693 14.8186 25.377 13.9395 24.4979C13.0605 23.6189 11.8682 23.125 10.625 23.125C9.38178 23.125 8.1895 23.6189 7.31042 24.4979C6.43135 25.377 5.93748 26.5693 5.93748 27.8125Z" stroke="#F68FE0" stroke-width="3.75" stroke-linecap="round" stroke-linejoin="round"/>
<path d="M21.5625 27.8125C21.5625 29.0557 22.0563 30.248 22.9354 31.1271C23.8145 32.0061 25.0068 32.5 26.25 32.5C27.4932 32.5 28.6855 32.0061 29.5645 31.1271C30.4436 30.248 30.9375 29.0557 30.9375 27.8125C30.9375 26.5693 30.4436 25.377 29.5645 24.4979C28.6855 23.6189 27.4932 23.125 26.25 23.125C25.0068 23.125 23.8145 23.6189 22.9354 24.4979C22.0563 25.377 21.5625 26.5693 21.5625 27.8125Z" stroke="#F68FE0" stroke-width="3.75" stroke-linecap="round" stroke-linejoin="round"/>
<path d="M15.3125 27.8125V7.5H30.9375V27.8125" stroke="#F68FE0" stroke-width="3.75" stroke-linecap="round" stroke-linejoin="round"/>
<path d="M15.3125 13.75H30.9375" stroke="#F68FE0" stroke-width="3.75" stroke-linecap="round" stroke-linejoin="round"/>
</g>
<defs>
<clipPath id="clip0_30_192">
<rect width="37.5" height="37.5" fill="white" transform="translate(1.24998 1.25)"/>
</clipPath>
</defs>
</svg>
