<svg width="300" height="300" viewBox="0 0 300 300" fill="none" xmlns="http://www.w3.org/2000/svg">
<rect x="4" y="4" width="292" height="292" rx="52" fill="#E9F3FF"/>
<rect x="4" y="4" width="292" height="292" rx="52" stroke="#E3F0FF" stroke-width="8"/>
<path fill-rule="evenodd" clip-rule="evenodd" d="M213.5 136.5C219.851 136.5 225 141.649 225 148V176C225 182.351 219.851 187.5 213.5 187.5C207.149 187.5 202 182.351 202 176V148C202 141.649 207.149 136.5 213.5 136.5ZM116 116.5C123.18 116.5 129 122.32 129 129.5V174.5C129 181.68 123.18 187.5 116 187.5C108.82 187.5 103 181.68 103 174.5V129.5C103 122.32 108.82 116.5 116 116.5ZM86.5 136.5C92.8513 136.5 98 141.649 98 148V176C98 182.351 92.8513 187.5 86.5 187.5C80.1487 187.5 75 182.351 75 176V148C75 141.649 80.1487 136.5 86.5 136.5ZM184 121.5C191.18 121.5 197 127.32 197 134.5V174.5C197 181.68 191.18 187.5 184 187.5C176.82 187.5 171 181.68 171 174.5V134.5C171 127.32 176.82 121.5 184 121.5ZM150 100.5C158.837 100.5 166 107.663 166 116.5V171.5C166 180.337 158.837 187.5 150 187.5C141.163 187.5 134 180.337 134 171.5V116.5C134 107.663 141.163 100.5 150 100.5Z" fill="#0047FF"/>
</svg>
