<svg width="300" height="300" viewBox="0 0 300 300" fill="none" xmlns="http://www.w3.org/2000/svg">
<rect x="4" y="4" width="292" height="292" rx="52" fill="#FFE3E7"/>
<rect x="4" y="4" width="292" height="292" rx="52" stroke="#FFDBE0" stroke-width="8"/>
<path fill-rule="evenodd" clip-rule="evenodd" d="M146.009 126.686V139.676H145.872C144.778 136.394 141.77 134.206 138.214 133.933C131.651 133.933 127.275 140.77 127.275 146.24C127.275 152.803 131.788 158.546 138.625 158.546C141.77 158.41 144.505 156.632 145.872 153.76H146.009V157.863H150.658V126.686H146.009ZM146.009 149.932C146.145 154.171 142.864 157.589 138.625 157.726C133.292 157.726 132.608 154.718 132.608 146.376C132.608 138.719 133.428 135.027 138.351 135.027C142.864 135.027 146.009 139.676 146.009 143.642V149.932ZM122.489 157.726C125.498 157.726 126.181 154.854 126.045 153.35L126.865 153.487C126.865 155.265 126.865 158.82 121.259 158.82C115.789 158.82 115.379 155.401 115.379 153.897V126.822H120.028V135.3H127.549V136.258H120.028V154.718C120.028 155.948 120.301 157.726 122.489 157.726ZM234.48 129.557C234.48 130.514 233.797 131.198 232.976 131.198C232.019 131.198 231.335 130.514 231.335 129.694C231.335 128.874 232.019 128.053 232.839 128.053C233.66 127.916 234.48 128.6 234.48 129.557ZM216.157 134.07C215.952 134.07 215.781 134.035 215.61 134.001C215.439 133.967 215.268 133.933 215.063 133.933C211.508 134.07 208.226 136.258 206.858 139.676H206.722V135.164H202.072V158.136H206.722V141.727C207.405 140.086 208.363 138.719 209.456 137.351C211.097 135.711 213.559 135.3 215.61 136.121L216.157 134.07ZM110.456 140.36C110.456 137.078 108.815 134.07 102.935 134.07C98.9697 134.07 96.2349 137.078 94.7307 139.813H94.594V135.3H89.9448V158.136H94.594V141.727C95.5512 139.813 97.8758 135.164 102.525 135.164C104.303 135.164 105.807 136.121 105.807 139.266V158.136H110.456V140.36ZM55.6229 157.726C59.0414 157.863 62.1864 155.675 63.2804 152.393H64.3743C63.1436 156.222 59.5884 158.82 55.6229 158.82C48.6491 158.82 43.9999 153.487 43.9999 146.376C43.9999 138.445 49.3328 133.933 55.6229 133.933C59.4516 133.933 62.8701 136.394 64.2375 139.95H63.1436C61.913 136.804 58.9046 134.89 55.6229 134.89C49.743 134.89 49.3328 139.129 49.196 144.188V148.291C49.196 153.35 49.743 157.726 55.6229 157.726ZM85.5691 152.393C84.4752 155.265 82.0138 157.726 77.2279 157.726C72.0317 157.726 71.4848 153.35 71.6215 149.385V146.376H86.5263C86.7998 146.376 86.9365 146.24 87.0732 145.966V145.829C87.0732 143.505 85.4324 133.933 77.2279 133.933C70.5276 133.933 66.4254 140.907 66.4254 146.24C66.4254 150.752 68.4765 158.546 77.7749 158.546C81.8771 158.683 85.5691 156.085 86.7998 152.119L85.5691 152.393ZM71.4848 141.727C71.4848 138.172 72.3052 134.89 77.0912 134.89C80.7832 134.89 81.6036 138.172 81.6036 141.727V145.009C81.6036 145.146 81.4669 145.419 81.3301 145.419H81.1934H71.4848V141.727ZM226.549 157.726C231.335 157.726 233.796 155.265 234.89 152.393L235.847 152.119C234.617 156.085 230.925 158.683 226.823 158.546C217.524 158.546 215.473 150.752 215.473 146.24C215.473 140.907 219.712 133.933 226.412 133.933C234.617 133.933 236.258 143.505 236.258 145.829C236.258 146.24 236.121 146.376 235.847 146.376H220.943V149.385C220.806 153.35 221.353 157.726 226.549 157.726ZM226.412 134.89C221.626 134.89 220.806 138.172 220.806 141.727V145.419H230.515H230.651C230.788 145.419 230.925 145.146 230.925 145.009V141.727C230.925 138.172 229.968 134.89 226.412 134.89ZM174.451 152.393C173.357 155.265 170.895 157.726 166.11 157.726C160.913 157.726 160.366 153.35 160.503 149.385V146.376H175.271C175.545 146.376 175.818 146.24 175.818 145.829C175.818 143.505 174.041 133.933 165.973 133.933C159.272 133.933 155.034 140.907 155.034 146.24C155.034 150.752 157.085 158.546 166.383 158.546C170.485 158.683 174.177 156.085 175.408 152.119L174.451 152.393ZM160.366 141.727C160.366 138.172 161.187 134.89 165.973 134.89C169.528 134.89 170.485 138.172 170.485 141.727V145.009C170.485 145.146 170.349 145.419 170.212 145.419H170.075H160.366V141.727ZM181.425 155.538H194.278C198.517 155.538 200.295 157.863 200.432 161.828C200.432 169.896 194.415 173.314 188.945 173.314C180.194 173.314 177.459 167.708 177.459 162.922V162.102H178.416V163.059C178.416 166.477 180.467 172.22 188.535 172.22C195.919 172.22 198.927 167.298 198.927 163.469C198.927 161.008 197.287 159.777 194.278 159.777H182.519C179.51 159.777 178.143 157.589 178.143 154.581C178.143 150.752 179.92 149.111 183.476 149.111V148.974C181.014 147.334 179.373 145.556 179.373 142.548C179.51 137.762 183.612 133.796 188.535 133.933H188.945C193.595 133.796 197.56 137.625 197.56 142.411C197.56 146.787 192.911 150.615 188.398 150.615C187.031 150.752 185.527 150.342 184.296 149.658C181.288 149.795 179.1 150.752 179.1 153.213C179.1 154.581 180.194 155.538 181.425 155.538ZM192.911 142.274C192.911 137.898 192.911 134.89 188.398 134.89C184.214 134.89 184.031 139.016 183.903 141.888L183.903 141.893C183.897 142.023 183.892 142.15 183.886 142.274C183.886 145.009 183.886 147.881 185.8 149.111C186.621 149.658 187.441 149.795 188.398 149.795C189.082 149.795 189.903 149.658 190.586 149.385C192.911 148.291 192.911 145.419 192.911 142.274ZM244.462 143.368C246.377 143.915 248.291 144.325 250.205 144.462C254.308 145.009 256.359 147.197 255.948 150.479V151.436C255.675 155.812 251.709 159.093 247.334 158.82C239.129 158.82 237.488 154.444 237.625 152.256H238.719C238.719 154.718 240.907 157.999 247.334 157.999C252.393 157.999 253.487 154.581 253.487 152.666C253.487 150.342 251.436 149.111 248.975 148.564C248.428 148.564 244.462 147.881 244.462 147.881C239.54 147.06 238.309 144.189 238.309 141.864C238.309 138.172 241.044 134.89 244.736 134.206C245.419 134.07 246.24 134.07 246.924 134.07C249.932 133.796 252.803 135.3 254.581 137.762L253.761 138.445C252.256 136.121 249.522 134.89 246.787 134.89C246.203 134.89 245.719 134.99 245.164 135.104C245.069 135.124 244.972 135.144 244.872 135.164C242.821 135.574 241.18 137.351 241.044 139.539C241.044 140.907 241.727 142.548 244.462 143.368Z" fill="#E20020"/>
</svg>
