<svg width="300" height="300" viewBox="0 0 300 300" fill="none" xmlns="http://www.w3.org/2000/svg">
<rect x="4" y="4" width="292" height="292" rx="52" fill="#FFE5E0"/>
<rect x="4" y="4" width="292" height="292" rx="52" stroke="#FFD8D1" stroke-width="8"/>
<path d="M55.3926 130.619C57.3606 130.619 59.1773 131.135 60.8408 132.166C62.5041 133.185 63.8335 134.725 64.8291 136.787C65.8248 138.837 66.3232 141.408 66.3232 144.501C66.3232 147.511 65.8366 150.054 64.8643 152.128C63.9037 154.189 62.5911 155.753 60.9277 156.819C59.2761 157.873 57.4249 158.4 55.375 158.4C53.9227 158.4 52.687 158.16 51.668 157.68C50.6605 157.2 49.8347 156.596 49.1904 155.87C48.5461 155.132 48.0536 154.388 47.7139 153.638H47.4854V168.083H40V130.97H47.3799V135.504H47.7139C48.0419 134.777 48.5169 134.039 49.1377 133.29C49.7703 132.528 50.5903 131.896 51.5977 131.392C52.6167 130.877 53.8817 130.619 55.3926 130.619ZM192.636 130.619C194.604 130.619 196.42 131.135 198.083 132.166C199.746 133.185 201.077 134.725 202.072 136.787C203.068 138.837 203.565 141.408 203.565 144.501C203.565 147.511 203.08 150.054 202.107 152.128C201.147 154.189 199.834 155.753 198.171 156.819C196.519 157.873 194.668 158.4 192.618 158.4C191.166 158.4 189.93 158.16 188.911 157.68C187.904 157.2 187.077 156.596 186.433 155.87C185.788 155.132 185.297 154.388 184.957 153.638H184.729V168.083H177.243V130.97H184.623V135.504H184.957C185.285 134.777 185.759 134.039 186.38 133.29C187.012 132.528 187.833 131.896 188.841 131.392C189.86 130.877 191.125 130.619 192.636 130.619ZM94.8174 130.619C96.598 130.619 98.2564 130.906 99.791 131.48C101.337 132.042 102.684 132.892 103.832 134.028C104.992 135.164 105.894 136.593 106.538 138.315C107.182 140.025 107.505 142.029 107.505 144.325V146.381H89.124V146.399C89.1241 147.734 89.3704 148.888 89.8623 149.86C90.366 150.832 91.0746 151.583 91.9883 152.11C92.902 152.637 93.9859 152.9 95.2393 152.9C96.0709 152.9 96.8323 152.783 97.5234 152.548C98.2146 152.314 98.8068 151.963 99.2988 151.495C99.7908 151.026 100.165 150.452 100.423 149.772L107.347 150.229C106.995 151.893 106.275 153.346 105.186 154.588C104.108 155.818 102.713 156.778 101.003 157.469C99.3044 158.149 97.3419 158.488 95.1162 158.488C92.34 158.488 89.9504 157.926 87.9473 156.801C85.9558 155.665 84.4205 154.06 83.3428 151.987C82.265 149.902 81.7266 147.435 81.7266 144.589C81.7266 141.812 82.2652 139.376 83.3428 137.279C84.4205 135.182 85.9382 133.548 87.8945 132.377C89.8625 131.205 92.17 130.619 94.8174 130.619ZM160.66 130.619C162.441 130.619 164.099 130.906 165.634 131.48C167.18 132.042 168.527 132.892 169.675 134.028C170.834 135.164 171.737 136.593 172.381 138.315C173.025 140.025 173.348 142.029 173.348 144.325V146.381H154.967V146.399C154.967 147.734 155.213 148.888 155.705 149.86C156.209 150.832 156.917 151.583 157.831 152.11C158.745 152.637 159.829 152.9 161.082 152.9C161.914 152.9 162.675 152.783 163.366 152.548C164.057 152.314 164.65 151.963 165.142 151.495C165.634 151.026 166.008 150.452 166.266 149.772L173.189 150.229C172.838 151.893 172.118 153.346 171.028 154.588C169.951 155.818 168.556 156.778 166.846 157.469C165.147 158.149 163.185 158.488 160.959 158.488C158.183 158.488 155.793 157.926 153.79 156.801C151.799 155.665 150.264 154.06 149.187 151.987C148.109 149.902 147.569 147.435 147.569 144.589C147.569 141.812 148.109 139.376 149.187 137.279C150.264 135.182 151.781 133.548 153.737 132.377C155.705 131.205 158.013 130.619 160.66 130.619ZM125.423 130.585C125.798 130.585 126.202 130.608 126.635 130.655C127.068 130.702 127.449 130.766 127.777 130.848V137.49C127.426 137.384 126.939 137.291 126.318 137.209C125.698 137.127 125.13 137.086 124.614 137.086C123.513 137.086 122.529 137.326 121.662 137.806C120.807 138.275 120.128 138.931 119.624 139.774C119.132 140.617 118.886 141.59 118.886 142.691V157.962H111.4V130.97H118.657V135.68H118.938C119.43 134.005 120.256 132.74 121.416 131.884C122.576 131.018 123.912 130.585 125.423 130.585ZM144.68 130.585C145.055 130.585 145.459 130.608 145.893 130.655C146.326 130.702 146.707 130.766 147.035 130.848V137.49C146.684 137.384 146.197 137.291 145.576 137.209C144.955 137.127 144.387 137.086 143.872 137.086C142.771 137.086 141.787 137.326 140.92 137.806C140.065 138.275 139.385 138.931 138.881 139.774C138.389 140.617 138.144 141.59 138.144 142.691V157.962H130.657V130.97H137.915V135.68H138.196C138.688 134.005 139.514 132.74 140.674 131.884C141.833 131.018 143.169 130.585 144.68 130.585ZM214.841 135.733H215.157C215.766 134.14 216.751 132.892 218.109 131.99C219.468 131.076 221.173 130.62 223.223 130.62C225.097 130.62 226.732 131.029 228.126 131.849C229.532 132.658 230.621 133.823 231.395 135.346C232.179 136.857 232.565 138.667 232.554 140.776V157.962H225.068V142.112C225.08 140.448 224.658 139.154 223.803 138.228C222.959 137.303 221.777 136.84 220.254 136.839C219.235 136.839 218.332 137.056 217.547 137.49C216.774 137.923 216.165 138.557 215.72 139.388C215.286 140.208 215.064 141.198 215.052 142.357V157.962H207.566V121.974H214.841V135.733ZM259.543 135.839L247.138 151.794V151.987H260V157.962H237.314V153.498L250.528 137.138V136.945H237.771V130.97H259.543V135.839ZM77.8096 157.961H70.3232V130.97H77.8096V157.961ZM53.0029 136.576C51.7847 136.576 50.7535 136.898 49.9102 137.543C49.0786 138.187 48.4402 139.101 47.9951 140.284C47.55 141.467 47.3272 142.861 47.3271 144.465C47.3271 146.07 47.55 147.471 47.9951 148.666C48.4402 149.86 49.0844 150.792 49.9277 151.46C50.7711 152.116 51.7965 152.443 53.0029 152.443C54.2211 152.443 55.2523 152.11 56.0957 151.442C56.9391 150.763 57.5783 149.825 58.0117 148.63C58.4569 147.424 58.6787 146.035 58.6787 144.465C58.6787 142.908 58.4626 141.537 58.0293 140.354C57.5959 139.171 56.9567 138.245 56.1133 137.578C55.2698 136.91 54.233 136.576 53.0029 136.576ZM190.246 136.576C189.028 136.576 187.997 136.898 187.153 137.543C186.322 138.187 185.683 139.101 185.238 140.284C184.793 141.467 184.57 142.861 184.57 144.465C184.57 146.07 184.793 147.471 185.238 148.666C185.683 149.86 186.328 150.792 187.171 151.46C188.014 152.116 189.04 152.443 190.246 152.443C191.464 152.443 192.495 152.11 193.339 151.442C194.182 150.763 194.82 149.825 195.254 148.63C195.699 147.424 195.922 146.035 195.922 144.465C195.922 142.908 195.705 141.537 195.271 140.354C194.838 139.171 194.2 138.245 193.356 137.578C192.513 136.91 191.476 136.576 190.246 136.576ZM94.9404 136.207C93.8042 136.207 92.7965 136.471 91.918 136.998C91.0513 137.513 90.3718 138.21 89.8799 139.089C89.426 139.888 89.179 140.773 89.1338 141.742H100.458C100.458 140.664 100.224 139.709 99.7559 138.878C99.2873 138.046 98.6364 137.396 97.8047 136.927C96.9847 136.447 96.0298 136.207 94.9404 136.207ZM160.783 136.207C159.647 136.207 158.639 136.471 157.761 136.998C156.894 137.513 156.215 138.21 155.723 139.089C155.269 139.888 155.023 140.773 154.978 141.742H166.301C166.301 140.664 166.067 139.709 165.599 138.878C165.13 138.046 164.479 137.396 163.647 136.927C162.827 136.447 161.873 136.207 160.783 136.207ZM74.084 119.918C75.1969 119.918 76.1458 120.293 76.9307 121.043C77.7272 121.781 78.126 122.665 78.126 123.696C78.1259 124.738 77.7272 125.635 76.9307 126.384C76.1458 127.122 75.1968 127.491 74.084 127.491C72.9712 127.491 72.0163 127.122 71.2197 126.384C70.4349 125.635 70.0431 124.738 70.043 123.696C70.043 122.665 70.435 121.781 71.2197 121.043C72.0163 120.293 72.9711 119.918 74.084 119.918Z" fill="#FF6348"/>
</svg>
