<svg width="300" height="300" viewBox="0 0 300 300" fill="none" xmlns="http://www.w3.org/2000/svg">
<rect x="4" y="4" width="292" height="292" rx="52" fill="#FFF3D2"/>
<rect x="4" y="4" width="292" height="292" rx="52" stroke="#FFEFC3" stroke-width="8"/>
<path d="M207.856 175.626L237.5 163.989L204.431 161.167L222.561 148.27L200.165 148.253L231.252 123.753L191.072 135.325L209.351 92.0836L172.236 122.623L175.521 91.0867L157.075 118.504L150.993 104.665L145.107 118.793L124.358 84.0034L126.565 127.078L102.006 112.123L108.322 136.71L62.5 123.926L99.3848 158.43L79.4769 165.13L99.7475 171.898L67.7718 187.885L103.262 189.537C103.262 189.537 94.4231 200.096 89.3529 205.997C104.289 202.389 121.285 200.085 140.052 199.621H140.091V163.083H119.526V144.615H180.299V163.083H159.534V199.697C177.233 200.268 195.95 202.487 210.291 205.93C207.725 201.634 197.572 189.538 197.572 189.538L228.519 194.675L207.856 175.626Z" fill="black"/>
</svg>
